<svg xmlns="http://www.w3.org/2000/svg" viewBox="0 0 578 140.06"><defs><style>.cls-1,.cls-3,.cls-4,.cls-5{fill:none;}.cls-1,.cls-2,.cls-3,.cls-4,.cls-5,.cls-6{stroke:#dcdbdb;}.cls-1,.cls-2,.cls-4,.cls-5,.cls-6{stroke-miterlimit:10;}.cls-1,.cls-2{stroke-width:0.3px;}.cls-2{fill:#fff;}.cls-3,.cls-4,.cls-5{stroke-linecap:round;}.cls-3{stroke-linejoin:round;}.cls-3,.cls-4{stroke-width:2px;}.cls-6,.cls-7{fill:#dcdbdb;}</style></defs><g id="lines"><polygon class="cls-1" points="1 98.12 4.79 92.82 19.62 93.18 23.71 96.94 16.97 107.91 11.32 107.65 1 98.12"/><line class="cls-1" x1="23.71" y1="96.94" x2="151.82" y2="51.76"/><polygon class="cls-1" points="557.35 41.18 569.94 56.35 569.47 49.18 577 52.35 577 48.94 570.18 42.35 557.35 41.18"/><line class="cls-1" x1="544.88" y1="80.59" x2="557.35" y2="41.18"/><path class="cls-1" d="M474.29,76.71c.12.35,32,14.94,32,14.94l2.24,7.41,13.53-1.18,4.47,2.94,26.59-9.06,2.59,3.06,5.88-5.41,10.94-1.29-4.94-4.71-13.53.47-9.18-3.29-19.41,3.76-9.18,6.83-10,.47"/><polygon class="cls-1" points="168.65 24.06 168.71 18.82 165.94 14.88 166.24 9.29 179.94 1 192.24 1.41 222.41 10.12 245.82 6.35 256.41 10.82 281.59 6.82 290.41 10.35 315.47 12 335 7.76 351.71 13.77 361.71 10.47 372.06 14.82 373.71 12.12 378.29 12.59 381.94 17.65 385.71 12.71 387.71 14.35 387.24 17.18 391.35 19.18 393.35 24.71 403.59 22.23 397 19.88 390.29 11.41 413.94 18.82 416.76 14 433.12 18.59 435.71 15.41 460.06 28.71 465.12 24.82 472.06 33.53 475.47 30.35 488.06 37.41 496.88 29.88 494.76 58.59 503.71 67.18 501.38 68.9 501.29 71.5 498.65 71.41 495.34 67.53 495.82 73.22 493 75.52 486.21 71.94 474.29 76.71 461.12 93.29 461.12 100.71 456.41 105.29 450.29 106.47 453 114.47 428.29 127.06 415.24 124.23 405.24 127.53 395 127.88 380.41 136 374.41 135.65 371.71 139.06 369.59 133.76 373.82 131.76 371 127.77 365.47 134.24 352.18 132.24 348.18 126.35 339 126.12 330.53 131.76 325.94 131.41 314.65 120.82 305.24 124.47 295.35 124.35 290.65 129.18 285.47 125.88 283.12 127.53 280.18 124.71 267.82 126.47 260.29 122.82 251.71 123.18 251.12 118.71 244.29 121.18 246.41 124 234.18 131.53 217.59 130.59 217.71 136.94 206.29 128.24 187.94 125.65 182.88 130 167.35 129.88 163.71 126.82 163.72 134.61 158.76 134.82 155.24 127.41 156.29 119.18 167.71 114.82 157.71 111.29 159.47 105.06 162.06 102.82 161 96.12 163.94 94.35 164.53 79.18 171.24 73.29 162.41 63.88 159.47 53.29 151.82 51.77 143.82 36.23 168.65 24.06"/><line class="cls-1" x1="457.49" y1="27.3" x2="461.29" y2="22.76"/><line class="cls-2" x1="499.09" y1="62.75" x2="501.74" y2="58.59"/></g><g id="computer_dots" data-name="computer dots"><line class="cls-3" x1="23.71" y1="96.94" x2="23.71" y2="96.94"/><line class="cls-3" x1="151.82" y1="51.76" x2="151.82" y2="51.76"/><line class="cls-3" x1="1" y1="98.12" x2="1" y2="98.12"/><line class="cls-3" x1="4.79" y1="92.82" x2="4.79" y2="92.82"/><line class="cls-3" x1="23.71" y1="96.94" x2="23.71" y2="96.94"/><line class="cls-3" x1="16.97" y1="107.91" x2="16.97" y2="107.91"/><line class="cls-3" x1="168.65" y1="24.06" x2="168.65" y2="24.06"/><line class="cls-3" x1="166.24" y1="9.29" x2="166.24" y2="9.29"/><line class="cls-3" x1="372.06" y1="14.82" x2="372.06" y2="14.82"/><line class="cls-3" x1="373.71" y1="12.12" x2="373.71" y2="12.12"/><line class="cls-3" x1="378.29" y1="12.59" x2="378.29" y2="12.59"/><line class="cls-3" x1="381.94" y1="17.65" x2="381.94" y2="17.65"/><line class="cls-3" x1="385.71" y1="12.71" x2="385.71" y2="12.71"/><line class="cls-3" x1="387.71" y1="14.35" x2="387.71" y2="14.35"/><line class="cls-3" x1="387.24" y1="17.18" x2="387.24" y2="17.18"/><line class="cls-3" x1="393.35" y1="24.71" x2="393.35" y2="24.71"/><line class="cls-3" x1="403.59" y1="22.24" x2="403.59" y2="22.24"/><line class="cls-3" x1="390.29" y1="11.41" x2="390.29" y2="11.41"/><line class="cls-3" x1="413.94" y1="18.82" x2="413.94" y2="18.82"/><line class="cls-3" x1="416.76" y1="14" x2="416.76" y2="14"/><line class="cls-3" x1="433.12" y1="18.59" x2="433.12" y2="18.59"/><line class="cls-3" x1="435.71" y1="15.41" x2="435.71" y2="15.41"/><line class="cls-3" x1="460.06" y1="28.71" x2="460.06" y2="28.71"/><line class="cls-3" x1="465.12" y1="24.82" x2="465.12" y2="24.82"/><line class="cls-3" x1="472.06" y1="33.53" x2="472.06" y2="33.53"/><line class="cls-3" x1="475.47" y1="30.35" x2="475.47" y2="30.35"/><line class="cls-3" x1="488.06" y1="37.41" x2="488.06" y2="37.41"/><line class="cls-3" x1="496.88" y1="29.88" x2="496.88" y2="29.88"/><line class="cls-3" x1="494.76" y1="58.59" x2="494.76" y2="58.59"/><line class="cls-3" x1="503.71" y1="67.18" x2="503.71" y2="67.18"/><line class="cls-3" x1="501.38" y1="68.9" x2="501.38" y2="68.9"/><line class="cls-3" x1="501.29" y1="71.5" x2="501.29" y2="71.5"/><line class="cls-3" x1="498.65" y1="71.41" x2="498.65" y2="71.41"/><line class="cls-3" x1="495.34" y1="67.53" x2="495.34" y2="67.53"/><line class="cls-3" x1="495.82" y1="73.22" x2="495.82" y2="73.22"/><line class="cls-3" x1="493" y1="75.51" x2="493" y2="75.51"/><line class="cls-3" x1="486.21" y1="71.94" x2="486.21" y2="71.94"/><line class="cls-3" x1="461.12" y1="100.71" x2="461.12" y2="100.71"/><line class="cls-3" x1="450.29" y1="106.47" x2="450.29" y2="106.47"/><line class="cls-3" x1="453" y1="114.47" x2="453" y2="114.47"/><line class="cls-3" x1="374.41" y1="135.65" x2="374.41" y2="135.65"/><line class="cls-3" x1="371.71" y1="139.06" x2="371.71" y2="139.06"/><line class="cls-3" x1="369.59" y1="133.76" x2="369.59" y2="133.76"/><line class="cls-3" x1="373.82" y1="131.76" x2="373.82" y2="131.76"/><line class="cls-3" x1="371" y1="127.76" x2="371" y2="127.76"/><line class="cls-3" x1="365.47" y1="134.24" x2="365.47" y2="134.24"/><line class="cls-3" x1="352.18" y1="132.24" x2="352.18" y2="132.24"/><line class="cls-3" x1="348.18" y1="126.35" x2="348.18" y2="126.35"/><line class="cls-3" x1="314.65" y1="120.82" x2="314.65" y2="120.82"/><line class="cls-3" x1="295.35" y1="124.35" x2="295.35" y2="124.35"/><line class="cls-3" x1="290.65" y1="129.18" x2="290.65" y2="129.18"/><line class="cls-3" x1="285.47" y1="125.88" x2="285.47" y2="125.88"/><line class="cls-3" x1="283.12" y1="127.53" x2="283.12" y2="127.53"/><line class="cls-3" x1="280.18" y1="124.71" x2="280.18" y2="124.71"/><line class="cls-3" x1="251.71" y1="123.18" x2="251.71" y2="123.18"/><line class="cls-3" x1="251.12" y1="118.71" x2="251.12" y2="118.71"/><line class="cls-3" x1="244.29" y1="121.18" x2="244.29" y2="121.18"/><line class="cls-3" x1="246.41" y1="124" x2="246.41" y2="124"/><line class="cls-3" x1="217.59" y1="130.59" x2="217.59" y2="130.59"/><line class="cls-3" x1="217.71" y1="136.94" x2="217.71" y2="136.94"/><line class="cls-3" x1="187.94" y1="125.65" x2="187.94" y2="125.65"/><line class="cls-3" x1="163.71" y1="126.82" x2="163.71" y2="126.82"/><line class="cls-3" x1="163.72" y1="134.61" x2="163.72" y2="134.61"/><line class="cls-3" x1="158.76" y1="134.82" x2="158.76" y2="134.82"/><line class="cls-3" x1="156.29" y1="119.18" x2="156.29" y2="119.18"/><line class="cls-3" x1="167.71" y1="114.82" x2="167.71" y2="114.82"/><line class="cls-3" x1="157.71" y1="111.29" x2="157.71" y2="111.29"/><line class="cls-3" x1="162.06" y1="102.82" x2="162.06" y2="102.82"/><line class="cls-3" x1="161" y1="96.12" x2="161" y2="96.12"/><line class="cls-3" x1="163.94" y1="94.35" x2="163.94" y2="94.35"/><line class="cls-3" x1="164.53" y1="79.18" x2="164.53" y2="79.18"/><line class="cls-3" x1="171.24" y1="73.29" x2="171.24" y2="73.29"/><line class="cls-3" x1="159.47" y1="53.29" x2="159.47" y2="53.29"/><line class="cls-3" x1="151.82" y1="51.76" x2="151.82" y2="51.76"/><line class="cls-3" x1="143.82" y1="36.24" x2="143.82" y2="36.24"/><line class="cls-3" x1="474.29" y1="76.71" x2="474.29" y2="76.71"/><line class="cls-3" x1="506.29" y1="91.65" x2="506.29" y2="91.65"/><line class="cls-3" x1="508.53" y1="99.06" x2="508.53" y2="99.06"/><line class="cls-3" x1="526.53" y1="100.82" x2="526.53" y2="100.82"/><line class="cls-3" x1="553.12" y1="91.76" x2="553.12" y2="91.76"/><line class="cls-3" x1="555.71" y1="94.82" x2="555.71" y2="94.82"/><line class="cls-3" x1="572.53" y1="88.12" x2="572.53" y2="88.12"/><line class="cls-3" x1="567.59" y1="83.41" x2="567.59" y2="83.41"/><line class="cls-3" x1="506.29" y1="91.65" x2="506.29" y2="91.65"/><line class="cls-3" x1="557.35" y1="41.18" x2="557.35" y2="41.18"/><line class="cls-3" x1="569.94" y1="56.35" x2="569.94" y2="56.35"/><line class="cls-3" x1="569.47" y1="49.18" x2="569.47" y2="49.18"/><line class="cls-3" x1="577" y1="52.35" x2="577" y2="52.35"/><line class="cls-3" x1="577" y1="48.94" x2="577" y2="48.94"/><line class="cls-4" x1="544.88" y1="80.59" x2="544.88" y2="80.59"/><line class="cls-4" x1="557.35" y1="41.18" x2="557.35" y2="41.18"/><line class="cls-5" x1="457.49" y1="27.3" x2="457.49" y2="27.3"/><line class="cls-5" x1="461.29" y1="22.76" x2="461.29" y2="22.76"/><line class="cls-3" x1="499.09" y1="62.75" x2="499.09" y2="62.75"/><line class="cls-3" x1="501.74" y1="58.59" x2="501.74" y2="58.59"/></g><g id="individual_dots" data-name="individual dots"><circle class="cls-6" cx="11.35" cy="107.67" r="0.5"/><circle class="cls-6" cx="554.07" cy="83.82" r="0.5"/><circle class="cls-6" cx="561.59" cy="89.43" r="0.5"/><circle class="cls-6" cx="162.41" cy="63.88" r="0.5"/><circle class="cls-6" cx="182.88" cy="130" r="0.5"/><circle class="cls-6" cx="206.29" cy="128.24" r="0.5"/><circle class="cls-6" cx="159.47" cy="105.06" r="0.5"/><circle class="cls-6" cx="155.24" cy="127.41" r="0.5"/><circle class="cls-6" cx="167.35" cy="129.88" r="0.5"/><circle class="cls-6" cx="234.18" cy="131.53" r="0.5"/><circle class="cls-6" cx="267.82" cy="126.47" r="0.5"/><circle class="cls-6" cx="260.29" cy="122.82" r="0.5"/><circle class="cls-6" cx="325.97" cy="131.42" r="0.5"/><circle class="cls-6" cx="330.53" cy="131.76" r="0.5"/><circle class="cls-6" cx="339" cy="126.12" r="0.5"/><circle class="cls-6" cx="415.22" cy="124.18" r="0.5"/><circle class="cls-6" cx="405.29" cy="127.45" r="0.5"/><circle class="cls-6" cx="395" cy="127.88" r="0.5"/><circle class="cls-6" cx="380.46" cy="136.01" r="0.5"/><circle class="cls-6" cx="397" cy="19.88" r="0.5"/><circle class="cls-6" cx="391.35" cy="19.18" r="0.5"/><circle class="cls-6" cx="361.71" cy="10.47" r="0.5"/><circle class="cls-6" cx="351.63" cy="13.91" r="0.5"/><circle class="cls-6" cx="334.97" cy="7.76" r="0.5"/><circle class="cls-6" cx="290.42" cy="10.35" r="0.5"/><circle class="cls-6" cx="281.9" cy="6.9" r="0.5"/><circle class="cls-6" cx="256.43" cy="10.82" r="0.5"/><circle class="cls-6" cx="245.76" cy="6.38" r="0.5"/><circle class="cls-6" cx="192.24" cy="1.41" r="0.5"/><circle class="cls-6" cx="179.94" cy="1" r="0.5"/><circle class="cls-6" cx="165.94" cy="14.88" r="0.5"/><circle class="cls-6" cx="168.71" cy="18.82" r="0.5"/><circle class="cls-6" cx="456.43" cy="105.21" r="0.5"/><circle class="cls-6" cx="461.12" cy="93.29" r="0.5"/><circle class="cls-6" cx="525.5" cy="84.37" r="0.5"/><circle class="cls-6" cx="516.29" cy="91.19" r="0.5"/><circle class="cls-6" cx="522.05" cy="97.9" r="0.5"/><circle class="cls-7" cx="19.67" cy="93.23" r="1.99"/><circle class="cls-7" cx="222.6" cy="10.18" r="1.99"/><circle class="cls-7" cx="315.43" cy="11.89" r="1.99"/><circle class="cls-7" cx="305.35" cy="124.56" r="1.99"/><circle class="cls-7" cx="428.53" cy="127.09" r="1.99"/><circle class="cls-7" cx="570.18" cy="42.35" r="1.99"/></g><g id="pin"><path class="cls-7" d="M256.77,44.94l-3-2,3.25-4.27-4.88-1.65,1.11-3.28,4.76,1.74v-5h3.65v5l4.75-1.74,1.12,3.28-4.88,1.65L265.94,43l-3,2-3.11-4.24Z"/></g></svg>