<?xml version="1.0" encoding="utf-8"?>
<!-- Generator: Adobe Illustrator 24.1.1, SVG Export Plug-In . SVG Version: 6.00 Build 0)  -->
<svg version="1.1" id="Layer_1" xmlns="http://www.w3.org/2000/svg" xmlns:xlink="http://www.w3.org/1999/xlink" x="0px" y="0px"
	 viewBox="0 0 948.2 1253.9" style="enable-background:new 0 0 948.2 1253.9;" xml:space="preserve">
<style type="text/css">
	.st0{fill:#121212;}
	.st1{fill:none;}
	.st2{fill:#D9D9D9;}
	.st3{font-family:'IBMPlexMono';}
	.st4{font-size:27.54px;}
	.st5{font-family:'Garamond';}
	.st6{font-size:19.4478px;}
	.st7{font-family:'FuturaPT-BookObl';}
	.st8{font-size:19.44px;}
	.st9{font-family:'FuturaPT-Light';}
	.st10{font-size:6.48px;}
	.st11{font-family:'IBMPlexMono-Bold';}
	.st12{font-size:16.2px;}
	.st13{font-size:8.1px;}
	.st14{font-family:'BodoniMT';}
	.st15{font-size:21.6px;}
	.st16{font-size:12px;}
</style>
<g transform="translate(12645 1975)">
	<rect x="-12645" y="-1975" class="st0" width="948.2" height="1253.9"/>
	<rect x="-12644.7" y="-1974.7" class="st1" width="947.7" height="1253.3"/>
</g>
<text transform="matrix(0.7314 0.682 -0.682 0.7314 429.6793 93.7534)" class="st2 st3 st4">voices</text>
<text transform="matrix(0.7987 -0.6018 0.6018 0.7987 585.4603 391.5715)" class="st2 st5 st6">voices</text>
<text transform="matrix(0.6691 0.7431 -0.7431 0.6691 429.3108 554.2626)" class="st2 st7 st8">voices</text>
<text transform="matrix(0.9613 -0.2756 0.2756 0.9613 108.4081 557.0617)" class="st2 st9 st10">voices</text>
<text transform="matrix(0.7771 -0.6293 0.6293 0.7771 650.1037 908.1464)" class="st2 st11 st12">voices</text>
<text transform="matrix(0.9903 -0.1392 0.1392 0.9903 404.3033 835.3312)" class="st2 st5 st13">voices </text>
<text transform="matrix(0.8572 0.515 -0.515 0.8572 850.5256 655.8264)" class="st2 st5 st10">voices</text>
<text transform="matrix(6.123234e-17 1 -1 6.123234e-17 462.7793 1076.7598)" class="st2 st14 st15">voices</text>
<rect x="467.1" y="72.1" class="st1" width="9.9" height="28.9"/>
<text transform="matrix(1 0 0 1 467.0586 80.9976)"><tspan x="0" y="0" class="st3 st16">L</tspan><tspan x="0" y="14.4" class="st3 st16">o</tspan></text>
</svg>
