<?xml version="1.0" encoding="utf-8"?>
<!-- Generator: Adobe Illustrator 24.1.1, SVG Export Plug-In . SVG Version: 6.00 Build 0)  -->
<svg version="1.1" id="Layer_1" xmlns="http://www.w3.org/2000/svg" xmlns:xlink="http://www.w3.org/1999/xlink" x="0px" y="0px"
	 viewBox="0 0 948.2 1253.9" style="enable-background:new 0 0 948.2 1253.9;" xml:space="preserve">
<style type="text/css">
	.st0{fill:#121212;}
	.st1{fill:none;}
	.st2{enable-background:new    ;}
	.st3{fill:#D9D9D9;}
	.st4{font-family:'IBMPlexMono';}
	.st5{font-size:12px;}
</style>
<g transform="translate(12645 1975)">
	<rect x="-12645" y="-1975" class="st0" width="948.2" height="1253.9"/>
	<rect x="-12644.7" y="-1974.7" class="st1" width="947.7" height="1253.3"/>
</g>
<g class="st2">
	<path class="st3" d="M434.7,98.4l6-13.9l1.6,1.5l-2.6,5.7L437,98l0.1,0.1l6-3.2l5.5-3l1.6,1.5l-13.4,6.9L434.7,98.4z"/>
	<path class="st3" d="M447.9,101.1c3.1-3.3,6.9-3.8,9.8-1s2.7,6.5-0.4,9.8c-3.1,3.3-6.9,3.8-9.8,1
		C444.7,108.2,444.9,104.4,447.9,101.1z M455,109l1.4-1.5c2.1-2.2,1.9-4.4,0.1-6.1c-1.8-1.7-4-1.7-6.1,0.5l-1.4,1.5
		c-2.1,2.2-1.9,4.4-0.1,6.1S452.9,111.2,455,109z"/>
	<path class="st3" d="M457.3,116.9l3.7,3.5l7.1-7.7l-3.7-3.5l1.3-1.4l5.4,5l-8.4,9l3.5,3.3l-1.3,1.4l-8.9-8.3L457.3,116.9z
		 M472.1,107.6l0.3-0.3c0.5-0.6,1.3-0.7,2.2,0.2c0.9,0.9,0.9,1.6,0.3,2.2l-0.3,0.3c-0.5,0.6-1.3,0.7-2.2-0.2
		C471.4,109,471.5,108.2,472.1,107.6z"/>
	<path class="st3" d="M472.5,123.9c3.1-3.3,6.8-3.8,9.8-1.1c2,1.9,2.3,4,1.6,6l-1.9-0.5c0.6-1.4,0.3-2.9-1-4.1
		c-1.9-1.8-4.2-1.4-5.9,0.4l-1.7,1.8c-1.7,1.8-1.9,4.1,0.1,6c1.4,1.3,2.9,1.5,4.5,0.8l0.4,1.9c-1.9,0.8-4.2,0.6-6.2-1.3
		C469.1,131,469.4,127.2,472.5,123.9z"/>
	<path class="st3" d="M484.2,134.9c3.1-3.3,7-3.6,9.9-1c2.8,2.6,2.6,6.4-0.1,9.4l-0.7,0.8l-7.7-7.2l-0.5,0.5
		c-1.7,1.8-1.7,4.3,0.2,6.1c1.4,1.3,3.1,1.6,4.7,1l0.4,1.9c-1.9,0.8-4.4,0.4-6.4-1.5C481,142.1,481.1,138.2,484.2,134.9z
		 M486.8,135.5l-0.1,0.1l6,5.6l0.2-0.2c1.7-1.8,1.7-4.2,0-5.8C491,133.6,488.5,133.7,486.8,135.5z"/>
	<path class="st3" d="M493.1,149.6l2,0.1c0,2,0.6,3.6,2.2,5.1c1.6,1.5,3.3,2,4.4,0.8c1-1.1,0.4-2.2-0.4-3.2l-1.4-1.8
		c-1.3-1.6-3-3.9-0.9-6.2c1.9-2.1,4.7-1.4,7.1,0.8c1.9,1.7,2.7,3.6,2.7,5.6l-2,0c0.1-1-0.2-2.6-2-4.3c-1.6-1.5-3.1-1.8-4.1-0.7
		c-1,1.1-0.4,2.2,0.4,3.2l1.4,1.8c1.3,1.6,3,3.9,0.9,6.2c-1.9,2.1-4.8,1.6-7.4-0.9C493.9,154.1,493.1,151.8,493.1,149.6z"/>
</g>
<g class="st2">
	<path class="st3" d="M580.8,385.6c0.6-0.4,1.1-0.8,1.5-1c0.3-0.2,0.5-0.4,0.6-0.5c0.1-0.1,0.2-0.1,0.2-0.1l0.9-0.6
		c0.1-0.1,0.2-0.1,0.3-0.2c0,0,0.1,0,0.1,0c0,0.1,0.1,0.1,0.1,0.2c-0.1,0.1-0.1,0.2-0.2,0.2c-0.3,0.3-0.6,0.6-0.8,0.9
		c0,0.1,0,0.1,0,0.1c0,0,0.1,0.1,0.3,0.2c0,0,0.1,0.1,0.2,0.1l2.1,1.3c1,0.6,1.8,1,2.5,1.4c-0.1-0.5-0.2-1-0.3-1.6
		c-0.1-0.5-0.4-1.3-0.7-2.4c-0.1-0.3-0.2-0.7-0.4-1.1c0-0.1-0.1-0.1-0.1-0.2c0-0.1-0.1-0.1-0.3-0.1s-0.3,0-0.5,0.1
		c0,0-0.3,0.2-0.8,0.4c-0.1,0-0.1,0-0.2,0l0-0.1c0,0,0-0.1-0.1-0.1c0.1-0.1,0.2-0.2,0.2-0.2l0.9-0.7c0.1,0,0.2-0.2,0.4-0.3
		c0.8-0.6,1.3-1,1.5-1.1c0,0,0.1,0,0.2,0c0,0,0.1,0.1,0.1,0.2l-0.2,0.2c-0.1,0.1-0.1,0.1-0.1,0.1c-0.4,0.4-0.6,0.6-0.7,0.8
		c0,0.1,0,0.5,0.2,1c0.1,0.3,0.2,0.7,0.3,1.1l0.3,1.3c0,0.2,0.1,0.4,0.2,0.6l0.9,3.6l-0.2,0.2c-0.1-0.1-0.3-0.2-0.5-0.3l-1.5-0.8
		l-3.8-2.2c-0.7-0.4-1.2-0.6-1.2-0.6s-0.5,0.1-1.2,0.4C581,385.8,580.9,385.7,580.8,385.6L580.8,385.6z"/>
	<path class="st3" d="M590.7,382.8c-0.3-0.3-0.5-0.8-0.6-1.3c-0.2-0.5-0.2-1-0.1-1.5c0.1-0.5,0.2-1,0.4-1.4c0.3-0.6,0.8-1.1,1.4-1.6
		c0.9-0.7,2-1,3.1-0.8c1.1,0.2,2,0.7,2.7,1.6c0.6,0.8,0.8,1.8,0.6,2.9c-0.2,1.1-0.8,2.1-1.8,2.9c-0.6,0.5-1.3,0.8-2.1,0.8
		c-0.6,0.1-1.2,0-1.9-0.3C591.7,383.9,591.2,383.5,590.7,382.8z M596.3,383.3c0.4-0.3,0.7-0.7,0.9-1.1c0.2-0.5,0.2-1,0.1-1.6
		c-0.1-0.6-0.4-1.2-0.9-1.8c-0.3-0.4-0.7-0.8-1.3-1.2c-0.6-0.4-1.1-0.6-1.6-0.6s-1,0.2-1.5,0.5c-0.3,0.3-0.6,0.6-0.8,1
		c-0.2,0.4-0.3,0.9-0.2,1.6s0.5,1.3,1.1,2.2c0.7,0.9,1.4,1.5,2.2,1.6C595,383.9,595.7,383.7,596.3,383.3z"/>
	<path class="st3" d="M594.4,370.2c-0.1-0.2-0.2-0.4-0.1-0.6c0-0.2,0.1-0.4,0.3-0.5c0.2-0.1,0.4-0.2,0.6-0.2c0.2,0,0.4,0.1,0.5,0.3
		c0.1,0.2,0.2,0.4,0.1,0.6c0,0.2-0.1,0.4-0.3,0.6c-0.2,0.1-0.4,0.2-0.6,0.2C594.8,370.5,594.6,370.4,594.4,370.2z M596.8,374.6
		l-0.2-0.2c0.3-0.3,0.4-0.5,0.4-0.6c0.1-0.2,0.2-0.5,0.3-0.8c0.1-0.3,0.1-0.6,0.1-0.9c0.1-0.1,0.1-0.1,0.1-0.1l0.1-0.1
		c0.2,0.2,0.3,0.4,0.4,0.5c0,0,0.1,0.1,0.2,0.4l0.3,0.4l1.7,2.2l1.7,2.3c0.1,0.2,0.3,0.3,0.4,0.3s0.4,0,0.8-0.2
		c0.2-0.1,0.4-0.2,0.6-0.2c0,0,0.1,0,0.1,0.1c0,0,0,0.1,0,0.1c-0.2,0.1-0.5,0.3-0.8,0.5c-0.4,0.3-0.7,0.5-0.9,0.6
		c-0.1,0-0.5,0.4-1.2,1c-0.1,0.1-0.3,0.2-0.4,0.4c0,0-0.1,0-0.1,0.1c-0.1,0-0.1,0-0.1-0.1c-0.1-0.1,0-0.2,0-0.3c0,0,0.2-0.3,0.6-0.8
		c0.1-0.2,0.2-0.3,0.2-0.4c0-0.2-0.1-0.4-0.3-0.6c-0.3-0.4-1.1-1.5-2.4-3.2c-0.3-0.3-0.4-0.6-0.5-0.6c-0.1,0-0.2-0.1-0.4-0.1
		C597.5,374.3,597.2,374.4,596.8,374.6z"/>
	<path class="st3" d="M608.9,371.7l0.4,0.5c-0.1,0.7-0.2,1.3-0.5,1.8c-0.3,0.5-0.6,0.9-1.2,1.3c-0.6,0.4-1.2,0.7-1.9,0.7
		c-0.7,0-1.3-0.1-2-0.5c-0.7-0.4-1.2-0.8-1.6-1.3c-0.4-0.6-0.7-1.2-0.8-2c-0.1-0.7,0-1.4,0.3-2c0.3-0.6,0.8-1.2,1.6-1.8
		c0.7-0.5,1.3-0.8,1.9-0.9c0.3,0,0.6,0.1,0.7,0.3c0.1,0.2,0.2,0.3,0.1,0.5c0,0.2-0.1,0.3-0.3,0.5c-0.3,0.2-0.6,0.2-1.2,0.2
		c-0.3-0.1-0.6-0.1-0.8,0s-0.4,0.1-0.6,0.3c-0.5,0.3-0.7,0.8-0.7,1.4c0,0.8,0.3,1.7,0.9,2.4c0.6,0.8,1.3,1.3,2.1,1.5s1.5,0,2-0.4
		c0.4-0.3,0.7-0.6,0.9-1C608.6,372.9,608.8,372.4,608.9,371.7z"/>
	<path class="st3" d="M613.4,364.3l-3,2.3l-0.6,0.4c-0.2,0.2-0.5,0.4-0.7,0.6c0.1,0.2,0.1,0.3,0.2,0.4l0.1,0.1l0.1,0.1l0.3,0.4
		c0.2,0.3,0.6,0.6,1.1,0.9c0.5,0.3,1.1,0.4,1.6,0.4c0.5,0,1.1-0.3,1.6-0.6c0.3-0.2,0.5-0.4,0.6-0.6c0.1-0.2,0.3-0.5,0.4-0.9l0.2-0.9
		l0.3,0.3c0,0,0.1,0.1,0.1,0.1c0,0.5-0.1,0.9-0.3,1.4c-0.2,0.5-0.4,0.9-0.7,1.3c-0.1,0.2-0.4,0.4-0.8,0.7c-0.4,0.3-0.8,0.5-1.2,0.6
		c-0.7,0.2-1.4,0.1-2-0.2c-0.7-0.3-1.3-0.8-1.8-1.5c-0.2-0.2-0.3-0.5-0.5-1c-0.2-0.4-0.3-0.9-0.4-1.5c-0.1-0.4,0-0.7,0-1.1
		c0.1-0.5,0.3-0.8,0.4-1.1c0.2-0.4,0.6-0.7,1-1.1c0.5-0.4,0.9-0.6,1.3-0.6c0.6-0.1,1.1,0,1.6,0.2c0.5,0.2,0.8,0.5,1,0.8L613.4,364.3
		z M608.9,367.2l0.4-0.3c0.3-0.2,1-0.8,2.2-1.9c0.2-0.2,0.3-0.3,0.3-0.3c0-0.2,0-0.3-0.1-0.4c-0.1-0.2-0.3-0.3-0.6-0.4
		c-0.3-0.1-0.5-0.2-0.8-0.1c-0.3,0-0.6,0.2-0.9,0.4c-0.6,0.4-0.9,1-0.9,1.7C608.6,366.5,608.7,366.9,608.9,367.2z"/>
	<path class="st3" d="M616.5,365.2c0.5,0.3,0.9,0.5,1.1,0.6c0.4,0.1,0.8,0.2,1.2,0.2c0.4,0,0.7-0.2,1.1-0.4c0.3-0.2,0.5-0.6,0.6-1
		c0.1-0.3,0-0.6-0.2-0.9c-0.2-0.3-0.6-0.5-1-0.6c-0.4-0.1-1.1,0-1.9,0.2c-0.9,0.3-1.5,0.3-1.9,0.2c-0.4-0.1-0.8-0.4-1.1-0.7
		c-0.3-0.3-0.4-0.7-0.4-1.1c0-0.4,0.1-0.8,0.3-1.2c0.2-0.4,0.5-0.7,0.8-0.9c0.4-0.3,0.7-0.5,1-0.6c0.3-0.2,0.6-0.3,0.9-0.3
		c0.2,0.2,0.6,0.6,1,1.1l0.2,0.2c-0.1,0.1-0.1,0.1-0.2,0.1l-0.1,0.1c-0.5-0.3-0.9-0.5-1.4-0.5c-0.5,0-0.9,0.1-1.2,0.3
		c-0.3,0.2-0.5,0.5-0.5,0.8s0,0.6,0.3,0.9c0.2,0.2,0.4,0.4,0.7,0.4c0.3,0.1,0.8,0,1.5-0.2c0.7-0.2,1.3-0.3,1.7-0.3
		c0.4,0,0.8,0.1,1.1,0.3c0.3,0.2,0.6,0.4,0.8,0.7c0.3,0.3,0.4,0.8,0.4,1.2c0,0.5-0.1,0.9-0.4,1.3c-0.3,0.4-0.5,0.7-0.8,0.9
		c-0.6,0.5-1.3,0.8-2,1c-0.1,0-0.2-0.1-0.3-0.2c0,0-0.1-0.1-0.2-0.2c-0.6-0.6-0.9-1-1-1.1c0-0.1-0.1-0.1-0.1-0.2
		C616.3,365.3,616.4,365.2,616.5,365.2z"/>
</g>
<g class="st2">
	<path class="st3" d="M437.1,550.8l-2.9,4.9l6.1-1.4l1.1,1.2l-9.7,2l4.4-7.9L437.1,550.8z"/>
	<path class="st3" d="M437,561.5c0.1-0.8,0.4-1.8,1.4-2.7c0.9-0.8,2-1.3,3.5-1.2c1.2,0.1,2.2,0.6,3.1,1.6c0.9,1,1.2,2,1.2,2.9
		c-0.1,1.2-0.7,1.9-1.3,2.5c-1.3,1.2-2.6,1.4-3.5,1.3c-1.4-0.1-2.4-0.9-3.2-1.7C437.4,563.6,437,562.7,437,561.5z M441.9,559.1
		c-0.9-0.1-1.8,0.3-2.6,0.9c-0.7,0.6-0.9,1.3-0.9,1.7c0,0.4,0,1.2,0.7,1.9c0.7,0.8,1.5,1,2.2,1c0.9,0,1.8-0.4,2.5-1
		c0.6-0.5,0.8-1.2,0.9-1.7c0-0.6-0.2-1.3-0.7-1.9C443.7,559.7,443,559.2,441.9,559.1z"/>
	<path class="st3" d="M450.2,565.4l-6.7,4.7l-0.9-1l6.7-4.7L450.2,565.4z M452.2,562.1c0.2,0,0.6,0.1,0.8,0.4
		c0.2,0.2,0.3,0.4,0.2,0.6c0,0.2-0.1,0.4-0.3,0.6c-0.3,0.2-0.5,0.3-0.8,0.3c-0.4,0-0.6-0.2-0.8-0.4c-0.2-0.2-0.3-0.4-0.2-0.7
		c0-0.2,0.1-0.4,0.3-0.6C451.7,562.2,452,562.1,452.2,562.1z"/>
	<path class="st3" d="M454.3,573.4c0-0.4,0-0.9,0-1.3c-0.1-0.4-0.4-0.9-0.7-1.3c-0.6-0.7-1.3-1-2.1-1c-0.7-0.1-1.7,0.1-2.5,0.9
		c-0.8,0.7-1,1.4-1,1.9c0,0.8,0.3,1.4,0.7,1.9c0.4,0.4,0.7,0.7,1.3,0.9c0.6,0.2,1,0.2,1.4,0.2l-1.4,1c-0.5-0.1-0.9-0.2-1.2-0.5
		c-0.4-0.2-0.8-0.6-1.1-0.9c-0.7-0.7-1.2-1.6-1.1-2.8c0.1-1,0.6-1.9,1.4-2.7c0.9-0.8,2.2-1.3,3.5-1.2c0.7,0,2,0.4,3.1,1.6
		c0.5,0.6,1,1.4,1.2,2.5L454.3,573.4z"/>
	<path class="st3" d="M457.6,582.6c-0.7,0.1-1.6,0.2-2.2,0c-0.9-0.2-1.6-0.8-2-1.3c-0.6-0.7-1.1-1.5-1-2.7c0.1-0.7,0.3-1.7,1.4-2.7
		c1-0.9,2.3-1.4,3.5-1.3c1.2,0.1,2,0.5,2.7,1.3c0.9,1,1.1,1.9,1,2.6c-0.1,0.8-0.5,2-2,3.1l-4.2-4.7c-0.9,0.8-1.1,1.5-1.1,2
		c0,0.7,0.2,1.2,0.6,1.6c0.3,0.3,0.7,0.7,1.4,0.9c0.5,0.1,1.2,0.1,1.6-0.1L457.6,582.6z M458.9,579.8c0.4-0.4,0.7-1,0.7-1.6
		c0-0.6-0.3-1.1-0.6-1.4c-0.5-0.5-1-0.8-1.7-0.9c-0.5,0-1.1,0.1-1.6,0.4L458.9,579.8z"/>
	<path class="st3" d="M464.6,584.2c0.1-0.2,0.2-0.4,0.2-0.6c0-0.3-0.1-0.5-0.3-0.7c-0.2-0.2-0.4-0.4-0.7-0.4c-0.3,0-0.5,0.1-0.7,0.3
		c-0.2,0.2-0.3,0.4-0.3,0.6c0,0.3,0.1,0.6,0.2,0.9l0.2,0.8c0.1,0.3,0.2,0.9,0.2,1.2c-0.1,0.6-0.3,1-0.7,1.4
		c-0.5,0.5-1.2,0.8-1.8,0.7c-1.1,0-1.8-0.7-2.2-1.1c-0.4-0.4-0.7-0.9-0.7-1.6c0-0.6,0.2-1.2,0.5-1.7l1.2,0.6c-0.2,0.3-0.4,0.7-0.4,1
		c0,0.4,0.1,0.7,0.4,1c0.2,0.2,0.5,0.5,1,0.6c0.4,0,0.8-0.1,1-0.4c0.3-0.2,0.4-0.5,0.3-0.9c0-0.2-0.1-0.7-0.2-0.9l-0.1-0.5
		c-0.1-0.3-0.2-0.9-0.2-1.3c0.1-0.5,0.3-0.9,0.6-1.2c0.5-0.5,1.2-0.6,1.7-0.6c0.8,0,1.3,0.4,1.7,0.9c0.3,0.4,0.6,0.8,0.6,1.4
		c0,0.4-0.1,0.8-0.2,1.2L464.6,584.2z"/>
</g>
<g class="st2">
	<path class="st3" d="M108,554.4l1.5,1.9l0.3-2.4l0.3-0.1l-0.4,3l-1.9-2.4L108,554.4z"/>
	<path class="st3" d="M113.4,554.3c0.2,0.8-0.2,1.5-1,1.7c-0.8,0.2-1.5-0.2-1.7-1c-0.2-0.8,0.2-1.5,1-1.7S113.2,553.5,113.4,554.3z
		 M113.2,554.3c-0.2-0.6-0.8-1-1.4-0.8c-0.6,0.2-0.9,0.8-0.8,1.4c0.2,0.6,0.8,1,1.4,0.8C113,555.6,113.3,554.9,113.2,554.3z"/>
	<path class="st3" d="M113.5,551.9c0-0.1,0-0.3,0.2-0.3c0.1,0,0.3,0,0.3,0.2c0,0.1,0,0.3-0.2,0.3
		C113.6,552.1,113.5,552.1,113.5,551.9z M114,552.7l0.7,2.5l-0.3,0.1l-0.7-2.5L114,552.7z"/>
	<path class="st3" d="M117.2,552.5c-0.2-0.1-0.6-0.3-1-0.2c-0.6,0.2-0.9,0.8-0.7,1.4c0.2,0.7,0.9,0.9,1.4,0.8
		c0.4-0.1,0.7-0.4,0.8-0.7l0.1,0.3c-0.1,0.2-0.4,0.5-0.8,0.6c-0.8,0.2-1.5-0.2-1.7-0.9c-0.2-0.8,0.1-1.5,0.9-1.7
		c0.2-0.1,0.5-0.1,1,0.1L117.2,552.5z"/>
	<path class="st3" d="M118.2,552.9c0.2,0.6,0.8,0.9,1.3,0.8c0.4-0.1,0.7-0.5,0.7-0.8l0.2,0.1c-0.1,0.3-0.3,0.8-0.9,1
		c-0.8,0.2-1.4-0.2-1.6-1c-0.3-0.9,0.2-1.5,0.9-1.7c0.7-0.2,1.4,0.2,1.6,1L118.2,552.9z M120,552.1c-0.2-0.5-0.7-0.8-1.2-0.6
		c-0.5,0.1-0.8,0.6-0.7,1.2L120,552.1z"/>
	<path class="st3" d="M121.9,550.9c-0.1-0.2-0.3-0.2-0.5-0.2c-0.3,0.1-0.4,0.3-0.3,0.5c0.1,0.2,0.3,0.3,0.6,0.3c0.3,0,0.5,0,0.8,0.2
		c0.1,0.1,0.2,0.2,0.3,0.4c0.2,0.6-0.2,0.9-0.6,1c-0.4,0.1-0.8,0-1.1-0.4l0.2-0.1c0.2,0.3,0.5,0.4,0.8,0.3c0.3-0.1,0.5-0.4,0.4-0.7
		c-0.1-0.3-0.3-0.3-0.7-0.4c-0.3,0-0.5-0.1-0.7-0.2c-0.1-0.1-0.2-0.1-0.2-0.3c-0.1-0.4,0.1-0.7,0.5-0.8c0.3-0.1,0.6,0,0.8,0.2
		L121.9,550.9z"/>
</g>
<g class="st2">
	<path class="st3" d="M652.8,906l-7.6-4.6l2-1.6l3.1,2.1l2.4,1.7l0.1-0.1l-1.1-2.7l-1.4-3.5l1.9-1.5l2.9,8.4L652.8,906z"/>
	<path class="st3" d="M655.5,898.4c-1.7-2.1-1.5-4.4,0.5-6c2-1.6,4.3-1.3,6,0.8c1.7,2.1,1.5,4.4-0.5,6
		C659.5,900.8,657.2,900.5,655.5,898.4z M660.6,895.2l-0.8-1c-0.8-1-1.7-1.1-2.5-0.4c-0.8,0.7-0.9,1.6-0.1,2.6l0.8,1
		c0.8,1,1.7,1.1,2.5,0.4C661.3,897.1,661.3,896.1,660.6,895.2z"/>
	<path class="st3" d="M661.6,885.2l-0.3-0.4c-0.4-0.5-0.4-1.1,0.4-1.8s1.4-0.5,1.8,0l0.3,0.4c0.4,0.5,0.4,1.1-0.4,1.8
		S662,885.7,661.6,885.2z M665.2,893.5l2.1-1.7l-2.9-3.6l-2.1,1.7l-1.2-1.4l3.9-3.2l4.1,5l1.9-1.5l1.2,1.4l-5.8,4.7L665.2,893.5z"/>
	<path class="st3" d="M670.9,885.9c-1.7-2.1-1.5-4.4,0.5-6.1c1.4-1.2,2.8-1.2,4-0.6l-0.8,1.9c-0.6-0.3-1.3-0.4-2,0.1
		c-0.8,0.7-0.9,1.6-0.2,2.5l0.9,1.1c0.7,0.9,1.6,1,2.5,0.3c0.7-0.6,0.8-1.3,0.6-2l2.1-0.3c0.3,1.3-0.1,2.7-1.5,3.9
		C674.9,888.3,672.6,888,670.9,885.9z"/>
	<path class="st3" d="M678.3,879.9c-1.7-2.1-1.6-4.4,0.4-6c1.9-1.6,4.2-1.3,5.8,0.8l0.4,0.6l-4.4,3.6l0.1,0.1c0.7,0.8,1.7,1,2.7,0.2
		c0.8-0.6,1-1.4,1.1-2.2l1.9,0.3c0,1-0.5,2.3-1.9,3.4C682.2,882.4,680,882,678.3,879.9z M679.6,877.7l0.1,0.1l2.6-2.1l-0.1-0.1
		c-0.7-0.8-1.6-1-2.4-0.3C679,875.9,678.9,876.9,679.6,877.7z"/>
	<path class="st3" d="M687.6,876l0.3-1.8c1,0.1,1.9-0.1,2.8-0.8c0.7-0.6,1-1.2,0.6-1.7c-0.3-0.4-0.7-0.2-1.3,0.1l-1.2,0.7
		c-1.3,0.8-2.6,1-3.6-0.2c-1.1-1.4-0.7-3.1,1.2-4.6c1.3-1,2.5-1.4,3.5-1.2l-0.1,1.8c-0.7-0.1-1.6,0.1-2.4,0.7
		c-0.7,0.6-0.9,1.1-0.6,1.5c0.3,0.4,0.7,0.2,1.3-0.1l1.2-0.7c1.3-0.8,2.6-1,3.6,0.2c1.1,1.3,0.7,3.1-1.2,4.7
		C690.3,875.9,688.8,876.3,687.6,876z"/>
</g>
<g class="st2">
	<path class="st3" d="M403.8,832.2c0.3,0,0.5-0.1,0.8-0.1c0.2,0,0.3,0,0.3-0.1c0,0,0.1,0,0.1,0l0.4-0.1c0.1,0,0.1,0,0.1,0
		c0,0,0,0,0,0c0,0,0,0.1,0,0.1c0,0-0.1,0-0.1,0c-0.2,0-0.4,0.1-0.5,0.2c0,0,0,0,0,0c0,0,0,0.1,0.1,0.1c0,0,0,0,0,0.1l0.5,0.9
		c0.2,0.4,0.4,0.7,0.6,1c0.1-0.2,0.1-0.4,0.2-0.6c0.1-0.2,0.1-0.6,0.2-1c0-0.1,0.1-0.3,0.1-0.5c0,0,0-0.1,0-0.1c0,0,0-0.1-0.1-0.1
		c0,0-0.1-0.1-0.2-0.1c0,0-0.1,0-0.4,0c0,0,0,0-0.1,0l0,0c0,0,0,0,0,0c0.1,0,0.1,0,0.1,0l0.5-0.1c0,0,0.1,0,0.2,0
		c0.4-0.1,0.7-0.1,0.8-0.1c0,0,0,0,0,0c0,0,0,0.1,0,0.1l-0.1,0c0,0-0.1,0-0.1,0c-0.2,0.1-0.4,0.1-0.4,0.2c0,0-0.1,0.2-0.1,0.4
		c0,0.1-0.1,0.3-0.1,0.5l-0.1,0.5c0,0.1,0,0.2-0.1,0.2l-0.4,1.5l-0.1,0c0-0.1-0.1-0.1-0.1-0.2l-0.4-0.6l-0.9-1.5
		c-0.2-0.3-0.3-0.5-0.3-0.5c0,0-0.2-0.1-0.5-0.1C403.8,832.3,403.8,832.3,403.8,832.2L403.8,832.2z"/>
	<path class="st3" d="M408,833.2c0-0.2,0-0.4,0-0.6c0-0.2,0.1-0.4,0.3-0.6c0.1-0.2,0.3-0.3,0.4-0.4c0.2-0.1,0.5-0.2,0.8-0.3
		c0.5-0.1,0.9,0,1.3,0.3c0.4,0.3,0.6,0.7,0.7,1.1c0.1,0.4-0.1,0.8-0.4,1.2c-0.3,0.4-0.7,0.6-1.2,0.7c-0.3,0-0.6,0-1-0.1
		c-0.2-0.1-0.4-0.3-0.6-0.5C408.1,833.8,408,833.5,408,833.2z M409.9,834.5c0.2,0,0.4-0.1,0.6-0.2c0.2-0.1,0.3-0.3,0.4-0.6
		s0.1-0.5,0-0.8c0-0.2-0.1-0.4-0.2-0.7c-0.1-0.3-0.3-0.4-0.5-0.6c-0.2-0.1-0.4-0.1-0.7-0.1c-0.2,0-0.3,0.1-0.5,0.2
		c-0.2,0.1-0.3,0.3-0.4,0.5c-0.1,0.2-0.1,0.6,0,1c0.1,0.5,0.2,0.8,0.5,1S409.6,834.5,409.9,834.5z"/>
	<path class="st3" d="M411.8,831.4l0-0.1c0.2-0.1,0.3-0.1,0.3-0.1c0.1-0.1,0.2-0.1,0.3-0.2c0.1-0.1,0.2-0.2,0.2-0.3c0,0,0.1,0,0.1,0
		l0,0c0,0.1,0,0.2,0.1,0.3c0,0,0,0.1,0,0.2l0,0.2l0.2,1.1l0.2,1.2c0,0.1,0,0.2,0.1,0.2c0,0,0.1,0.1,0.3,0.1c0.1,0,0.2,0,0.2,0
		c0,0,0,0,0,0c0,0,0,0,0,0.1c-0.1,0-0.2,0-0.4,0c-0.2,0-0.4,0-0.4,0c0,0-0.2,0-0.6,0.1c-0.1,0-0.2,0-0.2,0.1c0,0,0,0-0.1,0
		c0,0,0,0,0,0c0,0,0-0.1,0.1-0.1c0,0,0.1-0.1,0.4-0.1c0.1,0,0.1-0.1,0.2-0.1c0-0.1,0-0.2,0-0.3c0-0.2-0.1-0.8-0.2-1.7
		c0-0.2,0-0.3-0.1-0.3c0,0-0.1-0.1-0.1-0.1S412,831.5,411.8,831.4z M411.9,829.4c0-0.1,0-0.2,0.1-0.2c0.1-0.1,0.1-0.1,0.2-0.1
		c0.1,0,0.2,0,0.3,0.1c0.1,0.1,0.1,0.1,0.1,0.2s0,0.2-0.1,0.2c-0.1,0.1-0.1,0.1-0.2,0.1c-0.1,0-0.2,0-0.3-0.1
		S411.9,829.5,411.9,829.4z"/>
	<path class="st3" d="M416.9,832.8l0,0.3c-0.2,0.2-0.4,0.4-0.5,0.5s-0.4,0.2-0.7,0.2c-0.3,0-0.6,0-0.8-0.1c-0.3-0.1-0.5-0.3-0.6-0.6
		s-0.3-0.5-0.3-0.8c0-0.3,0-0.6,0.1-0.9c0.1-0.3,0.3-0.5,0.5-0.7c0.2-0.2,0.5-0.3,0.9-0.3c0.4-0.1,0.7,0,0.9,0.1
		c0.1,0.1,0.2,0.1,0.2,0.3c0,0.1,0,0.2-0.1,0.2c0,0.1-0.1,0.1-0.2,0.1c-0.1,0-0.3,0-0.5-0.2c-0.1-0.1-0.2-0.1-0.3-0.2
		c-0.1,0-0.2,0-0.3,0c-0.2,0-0.4,0.2-0.5,0.4c-0.2,0.3-0.2,0.7-0.2,1.1c0.1,0.4,0.2,0.7,0.5,1c0.3,0.2,0.5,0.3,0.8,0.3
		c0.2,0,0.4-0.1,0.5-0.2C416.5,833.2,416.7,833,416.9,832.8z"/>
	<path class="st3" d="M420,831l-1.6,0.2l-0.3,0c-0.1,0-0.2,0-0.4,0.1c0,0.1,0,0.1,0,0.2l0,0l0,0l0,0.2c0,0.2,0.1,0.3,0.2,0.6
		c0.1,0.2,0.3,0.4,0.5,0.5c0.2,0.1,0.4,0.1,0.7,0.1c0.1,0,0.3-0.1,0.3-0.1s0.2-0.1,0.3-0.3l0.3-0.3l0,0.2c0,0,0,0,0,0.1
		c-0.1,0.2-0.2,0.3-0.4,0.5c-0.2,0.1-0.3,0.2-0.5,0.3c-0.1,0-0.2,0.1-0.4,0.1c-0.2,0-0.4,0-0.6,0c-0.3-0.1-0.5-0.2-0.7-0.5
		c-0.2-0.2-0.3-0.5-0.4-0.9c0-0.1,0-0.3,0-0.5s0.1-0.4,0.2-0.6c0.1-0.1,0.1-0.3,0.2-0.4c0.1-0.1,0.3-0.3,0.4-0.3
		c0.2-0.1,0.4-0.2,0.6-0.2c0.2,0,0.4,0,0.6,0c0.2,0.1,0.4,0.2,0.5,0.4C419.9,830.6,420,830.8,420,831L420,831z M417.8,831.2l0.2,0
		c0.1,0,0.5-0.1,1.2-0.2c0.1,0,0.2,0,0.2-0.1c0-0.1,0.1-0.1,0.1-0.1c0-0.1,0-0.2-0.1-0.3c-0.1-0.1-0.2-0.2-0.3-0.2
		c-0.1,0-0.2-0.1-0.4,0c-0.3,0-0.5,0.2-0.7,0.4C417.8,830.9,417.8,831,417.8,831.2z"/>
	<path class="st3" d="M420.9,832c0.1,0.2,0.2,0.4,0.3,0.5c0.1,0.1,0.3,0.2,0.4,0.3c0.1,0.1,0.3,0.1,0.5,0.1c0.1,0,0.3-0.1,0.4-0.3
		c0.1-0.1,0.1-0.2,0.1-0.4c0-0.2-0.1-0.3-0.3-0.4s-0.4-0.2-0.8-0.3c-0.4-0.1-0.6-0.2-0.7-0.3c-0.1-0.1-0.2-0.3-0.2-0.5
		c0-0.2,0-0.3,0.1-0.5c0.1-0.1,0.2-0.3,0.4-0.4c0.2-0.1,0.3-0.2,0.5-0.2c0.2,0,0.4,0,0.5,0c0.2,0,0.3,0,0.4,0.1
		c0,0.1,0.1,0.3,0.1,0.6l0,0.1c0,0-0.1,0-0.1,0l-0.1,0c-0.1-0.2-0.3-0.4-0.4-0.5s-0.3-0.1-0.5-0.1c-0.2,0-0.3,0.1-0.4,0.2
		c-0.1,0.1-0.1,0.2-0.1,0.4c0,0.1,0.1,0.2,0.2,0.3c0.1,0.1,0.3,0.2,0.6,0.2c0.3,0.1,0.5,0.2,0.7,0.2s0.3,0.2,0.3,0.3
		c0.1,0.1,0.1,0.3,0.2,0.4c0,0.2,0,0.4-0.1,0.5c-0.1,0.2-0.2,0.3-0.4,0.4c-0.2,0.1-0.3,0.1-0.5,0.2c-0.3,0-0.6,0-0.9-0.1
		c0,0,0-0.1-0.1-0.1c0,0,0-0.1,0-0.1c-0.1-0.3-0.1-0.6-0.2-0.6C420.8,832,420.8,832,420.9,832C420.9,832,420.9,832,420.9,832z"/>
</g>
<g class="st2">
	<path class="st3" d="M851.8,653.7c0.2,0.1,0.4,0.2,0.5,0.3c0.1,0.1,0.2,0.1,0.2,0.1c0,0,0.1,0,0.1,0l0.3,0.2c0,0,0.1,0.1,0.1,0.1
		c0,0,0,0,0,0c0,0,0,0-0.1,0c0,0-0.1,0-0.1,0c-0.1-0.1-0.3-0.1-0.4-0.1c0,0,0,0,0,0c0,0,0,0.1,0,0.1c0,0,0,0,0,0.1l-0.1,0.8
		c-0.1,0.4-0.1,0.7-0.1,1c0.2-0.1,0.3-0.2,0.4-0.3c0.1-0.1,0.4-0.3,0.7-0.5c0.1-0.1,0.2-0.2,0.3-0.3c0,0,0,0,0-0.1c0,0,0-0.1,0-0.1
		c0,0,0-0.1-0.1-0.1c0,0-0.1-0.1-0.2-0.2c0,0,0,0,0-0.1l0,0c0,0,0,0,0,0c0,0,0.1,0,0.1,0l0.3,0.2c0,0,0.1,0,0.2,0.1
		c0.3,0.2,0.5,0.3,0.5,0.3c0,0,0,0,0,0.1c0,0,0,0,0,0l-0.1,0c0,0,0,0-0.1,0c-0.2-0.1-0.3-0.1-0.3-0.1c0,0-0.1,0.1-0.3,0.2
		c-0.1,0.1-0.2,0.1-0.3,0.2l-0.3,0.3c0,0-0.1,0.1-0.2,0.1l-1,0.7l-0.1-0.1c0-0.1,0-0.1,0-0.2l0.1-0.6l0.2-1.4c0-0.3,0-0.4,0-0.5
		C852,654,851.9,653.9,851.8,653.7C851.8,653.7,851.8,653.7,851.8,653.7L851.8,653.7z"/>
	<path class="st3" d="M853.9,656.4c0.1-0.1,0.2-0.2,0.3-0.3c0.1-0.1,0.3-0.2,0.5-0.2c0.2,0,0.3-0.1,0.5,0c0.2,0,0.4,0.1,0.7,0.2
		c0.3,0.2,0.6,0.5,0.6,0.9c0.1,0.4,0,0.7-0.2,1c-0.2,0.3-0.4,0.5-0.8,0.6c-0.4,0.1-0.7,0-1.1-0.2c-0.2-0.1-0.4-0.3-0.5-0.6
		c-0.1-0.2-0.1-0.4-0.1-0.6C853.7,656.8,853.7,656.6,853.9,656.4z M854.4,658.1c0.1,0.1,0.3,0.1,0.5,0.1c0.2,0,0.3-0.1,0.5-0.2
		c0.2-0.1,0.3-0.3,0.5-0.5c0.1-0.1,0.2-0.3,0.2-0.5s0-0.4,0-0.6c-0.1-0.2-0.2-0.3-0.3-0.4c-0.1-0.1-0.3-0.1-0.4-0.1
		c-0.2,0-0.3,0-0.5,0.1c-0.2,0.1-0.4,0.3-0.5,0.6c-0.2,0.3-0.3,0.6-0.2,0.9C854.1,657.8,854.2,658,854.4,658.1z"/>
	<path class="st3" d="M857.2,657.2L857.2,657.2c0.2,0,0.3,0,0.3,0c0.1,0,0.2,0,0.3,0c0.1,0,0.2,0,0.3-0.1c0,0,0,0,0.1,0l0,0
		c0,0.1-0.1,0.2-0.1,0.2c0,0,0,0-0.1,0.1l-0.1,0.1l-0.5,0.8l-0.5,0.8c0,0.1-0.1,0.1-0.1,0.2c0,0,0.1,0.1,0.2,0.2
		c0.1,0.1,0.1,0.1,0.1,0.2c0,0,0,0,0,0c0,0,0,0,0,0c-0.1,0-0.2-0.1-0.3-0.2c-0.1-0.1-0.2-0.2-0.3-0.2c0,0-0.2-0.1-0.4-0.2
		c-0.1,0-0.1-0.1-0.2-0.1c0,0,0,0,0,0c0,0,0,0,0,0c0,0,0,0,0.1,0c0,0,0.1,0,0.3,0.1c0.1,0,0.1,0,0.1,0c0.1,0,0.1-0.1,0.2-0.2
		c0.1-0.1,0.3-0.5,0.7-1.1c0.1-0.1,0.1-0.2,0.1-0.2c0,0,0-0.1,0-0.1C857.3,657.4,857.3,657.3,857.2,657.2z M858.2,655.9
		c0-0.1,0.1-0.1,0.2-0.1s0.1,0,0.2,0c0.1,0,0.1,0.1,0.1,0.2s0,0.1,0,0.2s-0.1,0.1-0.2,0.1c-0.1,0-0.2,0-0.2,0
		c-0.1,0-0.1-0.1-0.1-0.2C858.2,656.1,858.2,656,858.2,655.9z"/>
	<path class="st3" d="M859.6,660.6l-0.1,0.2c-0.2,0.1-0.4,0.1-0.6,0.1c-0.2,0-0.4-0.1-0.5-0.2c-0.2-0.1-0.4-0.3-0.5-0.5
		c-0.1-0.2-0.1-0.4-0.1-0.7c0-0.2,0.1-0.5,0.2-0.6c0.1-0.2,0.3-0.4,0.5-0.5c0.2-0.1,0.4-0.2,0.7-0.2c0.2,0,0.5,0.1,0.7,0.3
		c0.3,0.2,0.4,0.3,0.5,0.5c0,0.1,0,0.2,0,0.3c0,0.1-0.1,0.1-0.1,0.1c-0.1,0-0.1,0-0.2,0c-0.1-0.1-0.2-0.2-0.2-0.3
		c0-0.1-0.1-0.2-0.1-0.3c0-0.1-0.1-0.1-0.2-0.1c-0.2-0.1-0.3-0.1-0.5,0c-0.3,0.1-0.5,0.3-0.6,0.6c-0.2,0.3-0.2,0.6-0.2,0.8
		c0,0.3,0.2,0.5,0.4,0.6c0.1,0.1,0.3,0.1,0.4,0.2C859.2,660.6,859.4,660.6,859.6,660.6z"/>
	<path class="st3" d="M862.5,661l-1.1-0.6l-0.2-0.1c-0.1,0-0.2-0.1-0.3-0.1c0,0-0.1,0.1-0.1,0.1l0,0l0,0l-0.1,0.1
		c-0.1,0.1-0.1,0.3-0.1,0.5c0,0.2,0,0.4,0.1,0.5c0.1,0.2,0.2,0.3,0.4,0.4c0.1,0.1,0.2,0.1,0.3,0.1c0.1,0,0.2,0,0.3,0l0.3,0l0,0.1
		c0,0,0,0,0,0c-0.1,0.1-0.3,0.1-0.5,0.1c-0.2,0-0.3,0-0.5-0.1c-0.1,0-0.2-0.1-0.3-0.2c-0.1-0.1-0.2-0.2-0.3-0.3
		c-0.1-0.2-0.2-0.4-0.2-0.6c0-0.2,0.1-0.5,0.2-0.7c0-0.1,0.1-0.2,0.2-0.3s0.2-0.2,0.4-0.3c0.1-0.1,0.2-0.1,0.3-0.1
		c0.2,0,0.3,0,0.4,0c0.1,0,0.3,0.1,0.5,0.2c0.2,0.1,0.3,0.2,0.4,0.3c0.1,0.2,0.1,0.3,0.1,0.5C862.6,660.8,862.5,660.9,862.5,661
		L862.5,661z M861,660l0.1,0.1c0.1,0.1,0.4,0.2,0.8,0.5c0.1,0,0.1,0.1,0.1,0.1c0.1,0,0.1,0,0.1-0.1c0-0.1,0.1-0.1,0.1-0.2
		c0-0.1,0-0.2-0.1-0.3c-0.1-0.1-0.1-0.2-0.2-0.2c-0.2-0.1-0.4-0.1-0.6-0.1C861.2,659.8,861.1,659.9,861,660z"/>
	<path class="st3" d="M862.6,662.1c0,0.2-0.1,0.4,0,0.4c0,0.1,0,0.3,0.1,0.4c0.1,0.1,0.1,0.2,0.3,0.3c0.1,0.1,0.2,0.1,0.4,0.1
		c0.1,0,0.2-0.1,0.2-0.2c0.1-0.1,0.1-0.3,0.1-0.4c0-0.1-0.1-0.3-0.3-0.6c-0.2-0.2-0.3-0.4-0.3-0.6s0-0.3,0.1-0.4
		c0.1-0.1,0.2-0.2,0.3-0.3c0.1-0.1,0.3-0.1,0.4,0s0.3,0.1,0.4,0.1c0.1,0.1,0.2,0.2,0.3,0.2c0.1,0.1,0.2,0.2,0.2,0.3
		c0,0.1-0.1,0.2-0.2,0.4l0,0.1c0,0,0,0-0.1,0l0,0c0-0.2,0-0.4,0-0.5s-0.1-0.3-0.3-0.3c-0.1-0.1-0.2-0.1-0.3-0.1s-0.2,0.1-0.3,0.2
		c0,0.1-0.1,0.2,0,0.3c0,0.1,0.1,0.2,0.3,0.4c0.2,0.2,0.3,0.4,0.3,0.5s0.1,0.3,0,0.4c0,0.1-0.1,0.2-0.1,0.3
		c-0.1,0.1-0.2,0.2-0.3,0.3c-0.1,0.1-0.3,0.1-0.4,0c-0.1,0-0.3-0.1-0.4-0.1c-0.2-0.1-0.4-0.3-0.6-0.5c0,0,0-0.1,0-0.1c0,0,0,0,0-0.1
		c0.1-0.3,0.2-0.4,0.2-0.5C862.5,662.1,862.5,662.1,862.6,662.1C862.5,662.1,862.5,662.1,862.6,662.1z"/>
</g>
<g class="st2">
	<path class="st3" d="M470.5,1086.8l-8.1-4v-0.3l8.1-4.1v-1.3h0.5v5.2h-0.5v-1.6l-5.6,2.8l5.6,2.7v-1.6h0.5v3.4h-0.5V1086.8z"/>
	<path class="st3" d="M466.9,1088.6c1.2,0,2.3,0.4,3.1,1.3c0.9,0.8,1.3,1.9,1.3,3.1c0,1.2-0.4,2.2-1.2,3.1c-0.8,0.8-1.8,1.3-3.1,1.3
		c-1.3,0-2.3-0.4-3.2-1.3c-0.9-0.9-1.3-1.9-1.3-3.1c0-1.2,0.4-2.2,1.3-3C464.7,1089,465.7,1088.6,466.9,1088.6z M466.9,1094.9
		c1.3,0,2.1,0,2.6-0.1s0.7-0.3,1-0.6c0.2-0.3,0.4-0.7,0.4-1.3c0-0.5-0.1-0.9-0.4-1.2c-0.2-0.3-0.6-0.5-1-0.6
		c-0.4-0.1-1.3-0.1-2.6-0.1c-1.3,0-2.2,0-2.6,0.1s-0.8,0.3-1,0.6s-0.4,0.7-0.4,1.2c0,0.5,0.1,0.9,0.4,1.2c0.2,0.3,0.6,0.5,1,0.6
		C464.8,1094.9,465.7,1094.9,466.9,1094.9z"/>
	<path class="st3" d="M471.2,1102.4h-7.9v1.4h-0.5v-4.9h0.5v1.5h7.2v-1.5h0.5v1.5C471.1,1101,471.1,1101.7,471.2,1102.4z
		 M475.3,1100.2c0.3,0,0.6,0.1,0.8,0.3c0.2,0.2,0.3,0.5,0.3,0.8s-0.1,0.6-0.3,0.8s-0.5,0.3-0.8,0.3c-0.3,0-0.6-0.1-0.8-0.3
		c-0.2-0.2-0.3-0.5-0.3-0.8s0.1-0.6,0.3-0.8C474.7,1100.3,475,1100.2,475.3,1100.2z"/>
	<path class="st3" d="M465.6,1112.3v0.5c-1-0.2-1.8-0.6-2.3-1.2c-0.5-0.6-0.8-1.4-0.8-2.2c0-1.2,0.4-2.2,1.3-3
		c0.9-0.8,1.9-1.2,3-1.2c1.2,0,2.2,0.4,3.1,1.3s1.3,1.9,1.3,3.1c0,0.9-0.2,1.6-0.7,2.2c-0.5,0.6-1,0.8-1.5,0.8
		c-0.3,0-0.5-0.1-0.8-0.3c-0.2-0.2-0.3-0.4-0.3-0.8c0-0.3,0.1-0.6,0.3-0.8c0.2-0.2,0.4-0.3,0.7-0.3c0.2,0,0.4,0.1,0.6,0.3
		c0.2,0.2,0.4,0.3,0.4,0.3c0.2,0,0.4-0.1,0.5-0.4c0.1-0.3,0.2-0.6,0.2-1c0-0.7-0.2-1.3-0.6-1.6s-1.2-0.5-2.5-0.5s-2.2,0-2.8,0.1
		c-0.6,0.1-1.1,0.2-1.4,0.5c-0.3,0.3-0.5,0.8-0.5,1.4C463,1110.8,463.9,1111.7,465.6,1112.3z"/>
	<path class="st3" d="M467.6,1121.8v-5.3c-2.1,0-3.4,0.1-3.8,0.3s-0.7,0.8-0.7,1.5c0,1.5,0.9,2.5,2.6,3v0.5c-1-0.2-1.8-0.7-2.3-1.3
		s-0.7-1.4-0.7-2.2c0-1.1,0.4-2.1,1.3-3c0.8-0.8,1.9-1.3,3.2-1.3c1.2,0,2.3,0.4,3.1,1.2s1.3,1.8,1.3,2.9c0,0.9-0.3,1.8-1,2.5
		S468.7,1121.8,467.6,1121.8z M468,1116.5v3.1c0.5,0.1,0.9,0.1,1.1,0.1c1.1,0,1.7-0.5,1.7-1.5c0-0.5-0.1-0.9-0.4-1.2
		s-0.6-0.4-1.1-0.4H468z"/>
	<path class="st3" d="M471.2,1129.1h-2.4v-0.4c1.4-0.3,2.1-1.1,2.1-2.4c0-0.5-0.1-1-0.4-1.4c-0.3-0.4-0.6-0.5-1-0.5
		c-0.3,0-0.6,0.1-0.7,0.4c-0.2,0.3-0.3,0.9-0.5,1.8c-0.3,2.1-1.2,3.2-2.9,3.2c-0.8,0-1.5-0.3-2.1-0.8c-0.5-0.5-0.8-1.2-0.8-2
		c0-0.8,0.3-1.6,1-2.3l-0.6-0.7v-0.4h3.1v0.4c-2,0.6-3,1.6-3,3c0,0.5,0.2,1,0.5,1.5c0.3,0.4,0.7,0.7,1.2,0.7c0.4,0,0.7-0.1,0.9-0.4
		c0.2-0.3,0.4-1,0.5-2.1c0.3-2,1.2-3,2.6-3c0.7,0,1.3,0.3,1.8,0.8c0.5,0.5,0.7,1.2,0.7,1.9c0,0.8-0.3,1.5-0.8,2
		c0.1,0.1,0.4,0.3,0.6,0.4V1129.1z"/>
</g>
<rect x="467.1" y="72.1" class="st1" width="9.9" height="28.9"/>
<text transform="matrix(1 0 0 1 467.0586 80.9976)" class="st4 st5">L</text>
<text transform="matrix(1 0 0 1 467.0586 95.3976)" class="st4 st5">o</text>
</svg>
