<svg xmlns="http://www.w3.org/2000/svg" width="122.92" height="122.92" viewBox="0 0 122.92 122.92"><defs><style>.a{fill:#fff;}</style></defs><path class="a" d="M77.64,38.08c-.5.13-1.24.3-2.16.5a61.4,61.4,0,0,1-12.14,1.3,61.29,61.29,0,0,1-12.13-1.3c-.93-.2-1.66-.37-2.17-.5a84.22,84.22,0,0,1,4.8-11.23c3-5.89,9.5-14.45,9.5-14.45S69.8,21,72.85,26.85A82.78,82.78,0,0,1,77.64,38.08Z"/><path class="a" d="M63.34,41.24a61.23,61.23,0,0,1-14.46-1.79v61.23a60.39,60.39,0,0,0,14.46,1.85,60.41,60.41,0,0,0,14.47-1.85V39.45A61.34,61.34,0,0,1,63.34,41.24Zm-.2,19.63A7.84,7.84,0,1,1,71.34,53,8,8,0,0,1,63.14,60.87Z"/><path class="a" d="M47.45,75.26v25.31c-4.93,1.34-8.16,5.77-9.75,9.54-.33.78-1.15.36-1.11-.57C37.38,89,44.38,78.78,47.45,75.26Z"/><path class="a" d="M90.1,109.54c0,.93-.79,1.35-1.11.57-1.59-3.77-4.82-8.2-9.75-9.54V75.26C82.31,78.78,89.31,89,90.1,109.54Z"/></svg>