<svg xmlns="http://www.w3.org/2000/svg" width="200" height="200" viewBox="0 0 200 200"><defs><style>.a{fill:#69f;}</style></defs><rect class="a" width="200" height="200"/><path d="M126.72,56.31c-.94.24-2.32.57-4,.94A114.35,114.35,0,0,1,100,59.67a114.38,114.38,0,0,1-22.68-2.42c-1.72-.37-3.1-.7-4-.94a154.93,154.93,0,0,1,9-21c5.7-11,17.76-27,17.76-27s12.06,16,17.76,27A154.93,154.93,0,0,1,126.72,56.31Z"/><path d="M100,62.23a115.32,115.32,0,0,1-27-3.35V173.29a113.44,113.44,0,0,0,27,3.45,113.44,113.44,0,0,0,27-3.45V58.88A115.23,115.23,0,0,1,100,62.23ZM99.61,98.9c-8.47,0-15.33-6.56-15.33-14.63s6.86-14.64,15.33-14.64,15.32,6.55,15.32,14.64S108.07,98.9,99.61,98.9Z"/><path d="M70.3,125.78v47.29c-9.22,2.52-15.25,10.8-18.21,17.84-.62,1.46-2.16.67-2.09-1.06C51.49,151.44,64.56,132.36,70.3,125.78Z"/><path d="M150,189.85c.06,1.73-1.48,2.52-2.09,1.06-3-7-9-15.32-18.2-17.84V125.78C135.44,132.36,148.51,151.44,150,189.85Z"/></svg>