<svg xmlns="http://www.w3.org/2000/svg" xmlns:xlink="http://www.w3.org/1999/xlink" width="1503.4" height="663.89"><defs><style>.a{fill:none;}.b{clip-path:url(#a);}.c{fill:#052f45;}.d{fill:#f5882e;}.e{fill:#bc6626;}.f{fill:#e2c281;}.g{fill:#54acb5;}.h{fill:#a0291d;}.i{fill:#114956;}.j{fill:#e1e0d3;}.k{fill:#0b333f;}.l{fill:#090240;}.m{fill:#7c1f1a;}.n{fill:#472366;}.o{fill:#311a49;}</style><clipPath id="a"><rect class="a" width="1503.4" height="663.89"/></clipPath></defs><g class="b"><path class="c" d="M1531.355-46.37V709H-109.115V-46.37H357.8A414,414,0,0,0,337.2,83.02c0,228.93,185.58,414.51,414.51,414.51s414.5-185.58,414.5-414.51a414,414,0,0,0-20.6-129.39Z"/><rect class="d" x="1409.17" y="110.603" width="123.143" height="199.071"/><path class="c" d="M1532.814,310.174H1408.67V110.1h124.144Zm-123.144-1h122.144V111.1H1409.67Z"/><rect class="e" x="1418.741" y="120.174" width="104.002" height="179.929"/><path class="c" d="M1523.242,300.6h-105V119.674h105Zm-104-1h103V120.674h-103Z"/><rect class="f" x="1433.265" y="188.132" width="16.571" height="111.753" transform="translate(-13.48 387.167) rotate(-15.226)"/><path class="c" d="M1447.88,300.713l-.131-.482-29.482-108.313,16.955-4.615.131.483L1464.835,296.1ZM1419.494,192.62l29.089,106.866,15.024-4.09-29.088-106.865Z"/><rect class="g" x="1450.27" y="188.132" width="16.571" height="111.753" transform="translate(-12.883 391.633) rotate(-15.226)"/><path class="c" d="M1464.884,300.713l-.131-.482-29.48-108.313,16.954-4.615.13.483L1481.84,296.1ZM1436.5,192.62l29.088,106.866,15.025-4.09-29.089-106.865Z"/><rect class="h" x="1467.039" y="186.877" width="16.571" height="111.753" transform="translate(-11.965 395.993) rotate(-15.226)"/><path class="c" d="M1481.653,299.458l-.13-.482L1452.04,190.664,1469,186.048l.131.483,29.48,108.312Zm-28.385-108.092,29.089,106.865,15.024-4.09-29.088-106.865Z"/><rect class="i" x="1484.415" y="186.877" width="16.571" height="111.753" transform="translate(-11.355 400.557) rotate(-15.226)"/><path class="c" d="M1499.029,299.458l-.131-.482-29.482-108.312,16.955-4.616.131.483,29.482,108.312Zm-28.385-108.092,29.088,106.865,15.025-4.09-29.089-106.865Z"/><rect class="d" x="1470.742" y="513.828" width="255.89" height="225.743"/><path class="c" d="M1727.132,740.07H1470.241V513.328h256.891Zm-255.891-1h254.891V514.328H1471.241Z"/><rect class="e" x="1483.283" y="523.681" width="230.808" height="204.037"/><path class="c" d="M1714.591,728.218H1482.783V523.181h231.808Zm-230.808-1h229.808V524.181H1483.783Z"/><rect class="f" x="1483.283" y="638.475" width="177.266" height="27.314"/><path class="c" d="M1661.049,666.288H1482.783V637.975h178.266Zm-177.266-1h176.266V638.975H1483.783Z"/><polygon class="g" points="1634.261 638.475 1483.283 638.475 1483.283 624.723 1633.384 624.723 1634.261 638.475"/><path class="c" d="M1634.794,638.975H1482.783V624.223h151.07Zm-151.011-1h149.945l-.813-12.752H1483.783Z"/><rect class="j" x="1483.283" y="589.632" width="150.978" height="17.546"/><path class="c" d="M1634.761,607.678H1482.783V589.132h151.978Zm-150.978-1h149.978V590.132H1483.783Z"/><rect class="h" x="1482.406" y="607.177" width="150.978" height="17.546"/><path class="c" d="M1633.884,625.223H1481.906V606.678h151.978Zm-150.978-1h149.978V607.678H1482.906Z"/><rect class="d" x="1227.928" y="514.325" width="255.327" height="225.246"/><path class="c" d="M1483.755,740.07H1227.428V513.824h256.327Zm-255.327-1h254.327V514.824H1228.428Z"/><rect class="e" x="1240.442" y="524.154" width="230.3" height="203.588"/><path class="c" d="M1471.241,728.241h-231.3V523.653h231.3Zm-230.3-1h229.3V524.653h-229.3Z"/><rect class="k" x="1169.631" y="615.096" width="184.456" height="42.835" transform="translate(1898.373 -625.346) rotate(90)"/><path class="c" d="M1283.777,729.241h-43.836V543.785h43.836Zm-42.836-1h41.836V544.785h-41.836Z"/><rect class="f" x="1213.978" y="631.189" width="167.852" height="27.253" transform="translate(1942.72 -653.088) rotate(90)"/><path class="c" d="M1312.03,729.241h-28.253V560.39h28.253Zm-27.253-1h26.253V561.39h-26.253Z"/><rect class="f" x="1371.414" y="656.668" width="122.73" height="21.418" transform="translate(2100.156 -765.403) rotate(90)"/><path class="c" d="M1443.988,729.241H1421.57V605.512h22.418Zm-21.418-1h20.418V606.512H1422.57Z"/><rect class="h" x="1373.189" y="631.189" width="167.852" height="27.253" transform="translate(2101.931 -812.299) rotate(90)"/><path class="c" d="M1471.241,729.241h-28.253V560.39h28.253Zm-27.253-1h26.253V561.39h-26.253Z"/><rect class="g" x="1260.655" y="644.538" width="150.645" height="17.507" transform="translate(1692.711 -790.442) rotate(77.821)"/><path class="c" d="M1342.93,729.359l-31.993-148.23,18.089-3.906,31.994,148.232ZM1312.124,581.9,1343.7,728.172l16.137-3.483-31.571-146.277Z"/><rect class="j" x="1363.514" y="577.969" width="17.507" height="150.645" transform="translate(-106.939 304.214) rotate(-12.179)"/><path class="c" d="M1379.22,729.359l-31.993-148.23,18.089-3.9,31.994,148.23ZM1348.414,581.9l31.571,146.277,16.137-3.483-31.571-146.277Z"/><rect class="h" x="1278.796" y="644.538" width="150.645" height="17.507" transform="translate(1707.025 -808.175) rotate(77.821)"/><path class="c" d="M1361.07,729.359l-31.992-148.23,18.089-3.906,31.993,148.232Zm-30.8-147.464,31.57,146.277,16.137-3.483L1346.4,578.412Z"/><rect class="d" x="1310.103" y="298.845" width="255.327" height="225.246"/><path class="c" d="M1565.93,524.591H1309.6V298.345H1565.93Zm-255.327-1H1564.93V299.345H1310.6Z"/><rect class="e" x="1322.616" y="309.674" width="230.3" height="203.588"/><path class="c" d="M1553.416,513.762h-231.3V309.174h231.3Zm-230.3-1h229.3V310.174h-229.3Z"/><rect class="i" x="1430.186" y="470.426" width="122.73" height="42.835"/><path class="c" d="M1553.416,513.762h-123.73V469.927h123.73Zm-122.73-1h121.73V470.927h-121.73Z"/><rect class="j" x="1421.041" y="449.009" width="122.73" height="21.418"/><path class="c" d="M1544.272,470.927H1420.541V448.509h123.731Zm-122.731-1h121.731V449.509H1421.541Z"/><rect class="h" x="1430.186" y="427.591" width="122.73" height="21.418"/><path class="c" d="M1553.416,449.509h-123.73V427.091h123.73Zm-122.73-1h121.73V428.091h-121.73Z"/><rect class="f" x="1421.041" y="406.174" width="122.73" height="21.418"/><path class="c" d="M1544.272,428.091H1420.541V405.674h123.731Zm-122.731-1h121.731V406.674H1421.541Z"/><rect class="g" x="1272.741" y="429.059" width="150.645" height="17.507" transform="translate(1491.617 -972.276) rotate(77.821)"/><path class="c" d="M1355.016,513.88l-31.993-148.232,18.089-3.9,31.993,148.232ZM1324.21,366.414l31.571,146.278,16.136-3.482-31.57-146.278Z"/><rect class="j" x="1375.6" y="362.489" width="17.507" height="150.645" transform="translate(-61.207 301.913) rotate(-12.179)"/><path class="c" d="M1391.306,513.88l-31.993-148.232,18.089-3.9L1409.4,509.976ZM1360.5,366.414l31.571,146.278,16.136-3.482-31.57-146.278Z"/><rect class="h" x="1290.882" y="429.059" width="150.645" height="17.507" transform="translate(1505.931 -990.008) rotate(77.821)"/><path class="c" d="M1373.156,513.88l-31.993-148.232,18.09-3.9,31.993,148.232Zm-30.8-147.466,31.571,146.278,16.137-3.482-31.572-146.278Z"/><rect class="d" x="-11.166" y="151.867" width="160.772" height="141.831"/><path class="c" d="M150.106,294.2H-11.666V151.367H150.106Zm-160.772-1H149.106V152.367H-10.666Z"/><rect class="e" x="-3.287" y="158.686" width="145.013" height="128.194"/><path class="c" d="M142.227,287.379H-3.787V158.186H142.227Zm-145.014-1H141.227V159.186H-2.787Z"/><rect class="i" x="11.26" y="260.907" width="130.466" height="26.972" transform="translate(152.986 548.787) rotate(180)"/><path class="c" d="M142.227,288.379H10.76V260.407H142.227Zm-130.467-1H141.227V261.407H11.76Z"/><rect class="f" x="30.353" y="242.747" width="111.374" height="17.161" transform="translate(172.079 502.654) rotate(180)"/><path class="c" d="M142.227,260.407H29.853v-18.16H142.227Zm-111.374-1H141.227v-16.16H30.853Z"/><rect class="g" x="30.353" y="231.723" width="94.857" height="11.024" transform="translate(155.562 474.469) rotate(-180)"/><path class="c" d="M125.71,243.247H29.853V231.223H125.71Zm-94.857-1H124.71V232.223H30.853Z"/><rect class="j" x="30.353" y="209.918" width="94.857" height="11.024"/><path class="c" d="M125.71,221.442H29.853V209.418H125.71Zm-94.857-1H124.71V210.418H30.853Z"/><rect class="h" x="33.686" y="220.942" width="94.857" height="10.781" transform="translate(162.23 452.664) rotate(-180)"/><path class="c" d="M129.044,232.223H33.187V220.441h95.857Zm-94.857-1h93.857v-9.782H34.187Z"/><rect class="d" x="-60.459" y="282.869" width="255.327" height="225.246"/><path class="c" d="M195.368,508.615H-60.959V282.369H195.368Zm-255.327-1H194.368V283.369H-59.959Z"/><rect class="e" x="-47.946" y="293.698" width="230.3" height="203.588"/><path class="c" d="M182.855,497.786h-231.3V293.2h231.3Zm-230.3-1h229.3V294.2h-229.3Z"/><rect class="f" x="-75.41" y="399.734" width="167.852" height="27.253" transform="translate(421.877 404.844) rotate(90)"/><path class="c" d="M22.643,497.786H-5.61V328.935H22.643Zm-27.253-1H21.643V329.935H-4.61Z"/><rect class="f" x="83.027" y="425.212" width="122.73" height="21.418" transform="translate(580.313 291.529) rotate(90)"/><path class="c" d="M155.6,497.786H133.183V374.056H155.6Zm-21.418-1H154.6V375.056H134.183Z"/><rect class="h" x="84.802" y="399.734" width="167.852" height="27.253" transform="translate(582.088 244.633) rotate(90)"/><path class="c" d="M182.855,497.786H154.6V328.935h28.254Zm-27.254-1h26.254V329.935H155.6Z"/><rect class="g" x="-28.732" y="413.083" width="150.645" height="17.507" transform="translate(449.103 287.299) rotate(77.821)"/><path class="c" d="M53.542,497.9,21.549,349.673l18.09-3.9L71.632,494ZM22.736,350.438,54.308,496.717l16.136-3.483L38.873,346.956Z"/><rect class="j" x="74.127" y="346.514" width="17.507" height="150.645" transform="translate(-87.13 26.98) rotate(-12.179)"/><path class="c" d="M89.832,497.9,57.839,349.673l18.09-3.9L107.922,494ZM59.026,350.438,90.6,496.717l16.136-3.483L75.163,346.956Z"/><rect class="h" x="-10.591" y="413.083" width="150.645" height="17.507" transform="translate(463.417 269.566) rotate(77.821)"/><path class="c" d="M71.684,497.9,39.69,349.673l18.09-3.9L89.773,494ZM40.878,350.438,72.449,496.717l16.136-3.483L57.015,346.956Z"/><rect class="d" x="-31.857" y="497.604" width="255.327" height="225.246"/><path class="c" d="M223.97,723.351H-32.357V497.1H223.97Zm-255.327-1H222.97V498.1H-31.357Z"/><rect class="e" x="-19.343" y="508.433" width="230.3" height="203.588"/><path class="c" d="M211.456,712.521h-231.3V507.934h231.3Zm-230.3-1h229.3V508.934h-229.3Z"/><rect class="j" x="-10.199" y="642.53" width="122.73" height="26.656"/><path class="c" d="M113.031,669.686H-10.7V642.03h123.73Zm-122.73-1h121.73V643.03H-9.7Z"/><rect class="h" x="-19.343" y="626.351" width="122.73" height="16.179" transform="translate(84.043 1268.881) rotate(180)"/><path class="c" d="M103.887,643.03H-19.844V625.851H103.887Zm-122.731-1H102.887V626.851H-18.844Z"/><rect class="f" x="-10.199" y="604.933" width="122.73" height="21.418" transform="translate(102.333 1231.284) rotate(180)"/><path class="c" d="M113.031,626.851H-10.7V604.433h123.73Zm-122.73-1h121.73V605.433H-9.7Z"/><rect class="g" x="110.188" y="627.82" width="150.645" height="17.507" transform="translate(846.894 589.538) rotate(102.179)"/><path class="c" d="M178.559,712.642l-18.09-3.905,31.993-148.231,18.09,3.9Zm-16.9-4.67,16.137,3.482,31.571-146.278-16.136-3.483Z"/><rect class="j" x="73.897" y="627.818" width="150.645" height="17.507" transform="translate(-504.505 648.134) rotate(-77.821)"/><path class="c" d="M142.268,712.64l-18.09-3.9L156.171,560.5l18.09,3.9Zm-16.9-4.67,16.137,3.482,31.571-146.278-16.136-3.483Z"/><rect class="g" x="92.046" y="627.819" width="150.645" height="17.507" transform="translate(824.924 607.27) rotate(102.179)"/><path class="c" d="M160.417,712.641l-18.09-3.9L174.32,560.505l18.09,3.9Zm-16.9-4.67,16.136,3.482,31.572-146.278-16.137-3.483Z"/><rect class="a" x="155.165" y="182.765" width="46.306" height="176.118"/><path class="l" d="M1279.535-46.37c-58.05-237.61-272.35-413.94-527.83-413.94S281.915-283.98,223.865-46.37a544.6,544.6,0,0,0-15.5,129.39,540.937,540.937,0,0,0,108.98,326.46,544.981,544.981,0,0,0,230.67,177.4,545.293,545.293,0,0,0,407.37,0,544.9,544.9,0,0,0,230.67-177.4,540.937,540.937,0,0,0,108.98-326.46A544.6,544.6,0,0,0,1279.535-46.37ZM1166.205,83.02c0,228.93-185.58,414.51-414.5,414.51S337.2,311.95,337.2,83.02A414,414,0,0,1,357.8-46.37c54.35-165.57,210.16-285.12,393.91-285.12s339.56,119.55,393.9,285.12A414,414,0,0,1,1166.205,83.02Z"/><path class="c" d="M751.7,626.85a540.833,540.833,0,0,1-203.877-39.506A545.057,545.057,0,0,1,316.945,409.781,541.451,541.451,0,0,1,207.864,83.02,546.185,546.185,0,0,1,223.379-46.489a539.887,539.887,0,0,1,71.1-165.072A545.393,545.393,0,0,1,413.434-342.835a543.235,543.235,0,0,1,676.533,0,545.43,545.43,0,0,1,118.951,131.274,539.92,539.92,0,0,1,71.1,165.072A546.135,546.135,0,0,1,1295.534,83.02a541.442,541.442,0,0,1-109.08,326.761A544.959,544.959,0,0,1,955.572,587.344,540.878,540.878,0,0,1,751.7,626.85Zm0-1086.66C500.7-459.81,283.839-289.749,224.35-46.251A545.179,545.179,0,0,0,208.864,83.02c0,118.752,37.651,231.536,108.88,326.16A544.031,544.031,0,0,0,548.2,586.416a544.787,544.787,0,0,0,407,0A543.949,543.949,0,0,0,1185.655,409.18c71.23-94.623,108.879-207.407,108.879-326.16a545.18,545.18,0,0,0-15.485-129.271C1219.561-289.749,1002.708-459.81,751.7-459.81Zm0,957.84a412.415,412.415,0,0,1-161.542-32.613A414.666,414.666,0,0,1,336.694,83.02a413.244,413.244,0,0,1,79.334-244.084,416.654,416.654,0,0,1,89.9-90.357,415.149,415.149,0,0,1,491.548,0,416.631,416.631,0,0,1,89.9,90.357A413.257,413.257,0,0,1,1166.7,83.02a415.477,415.477,0,0,1-253.464,382.4A412.382,412.382,0,0,1,751.7,498.03Zm0-829.02A413.608,413.608,0,0,0,337.694,83.02c0,228.286,185.724,414.01,414.01,414.01s414-185.724,414-414.01a413.6,413.6,0,0,0-414-414.01Z"/><path class="d" d="M1269.915-46.37c-57.83-232.41-267.91-404.62-518.21-404.62S291.315-278.78,233.485-46.37A534.711,534.711,0,0,0,217.7,83.02a531.749,531.749,0,0,0,114.79,330.82,535.708,535.708,0,0,0,208.64,160.05,535.646,535.646,0,0,0,421.14.01,535.726,535.726,0,0,0,208.66-160.07,531.712,531.712,0,0,0,114.78-330.81A534.711,534.711,0,0,0,1269.915-46.37Zm-518.21,543.9c-228.93,0-414.51-185.58-414.51-414.51A414,414,0,0,1,357.8-46.37c54.35-165.57,210.16-285.12,393.91-285.12s339.56,119.55,393.9,285.12a414,414,0,0,1,20.6,129.39C1166.205,311.95,980.625,497.53,751.705,497.53Z"/><path class="c" d="M751.7,617.52a530.845,530.845,0,0,1-210.777-43.171,537.387,537.387,0,0,1-208.835-160.2A532.25,532.25,0,0,1,217.194,83.02,536.342,536.342,0,0,1,233-46.491a530.691,530.691,0,0,1,70.235-161.422A536.081,536.081,0,0,1,420.105-336.226a532.371,532.371,0,0,1,152.994-84.7,533.909,533.909,0,0,1,510.2,84.7,536.089,536.089,0,0,1,116.868,128.313A530.691,530.691,0,0,1,1270.4-46.491h0A536.3,536.3,0,0,1,1286.2,83.02a532.2,532.2,0,0,1-114.887,331.12A537.414,537.414,0,0,1,962.462,574.359,530.973,530.973,0,0,1,751.7,617.52Zm0-1068.01c-245.61,0-458.511,166.23-517.734,404.24A535.312,535.312,0,0,0,218.194,83.02c0,121.27,39.657,235.559,114.683,330.51a536.382,536.382,0,0,0,208.444,159.9,535.147,535.147,0,0,0,420.746.009,536.409,536.409,0,0,0,208.465-159.919C1245.552,318.588,1285.2,204.3,1285.2,83.02A535.315,535.315,0,0,0,1269.43-46.249h0C1210.206-284.26,997.31-450.49,751.7-450.49Zm0,948.52a412.415,412.415,0,0,1-161.542-32.613A414.666,414.666,0,0,1,336.694,83.02a413.244,413.244,0,0,1,79.334-244.084,416.676,416.676,0,0,1,89.9-90.357,415.149,415.149,0,0,1,491.548,0,416.631,416.631,0,0,1,89.9,90.357A413.257,413.257,0,0,1,1166.7,83.02a415.477,415.477,0,0,1-253.464,382.4A412.382,412.382,0,0,1,751.7,498.03Zm0-829.02A413.608,413.608,0,0,0,337.694,83.02c0,228.286,185.724,414.01,414.01,414.01s414-185.724,414-414.01a413.6,413.6,0,0,0-414-414.01Z"/><path class="j" d="M1241.285-46.37c-57.17-216.93-254.7-376.89-489.58-376.89S319.285-263.3,262.115-46.37a506.884,506.884,0,0,0-16.69,129.39,504.568,504.568,0,0,0,146.23,355.9,507.584,507.584,0,0,0,112.91,86.06,507.024,507.024,0,0,0,494.26.01,507.684,507.684,0,0,0,112.92-86.07,504.568,504.568,0,0,0,146.23-355.9A506.884,506.884,0,0,0,1241.285-46.37Zm-489.58,543.9c-228.93,0-414.51-185.58-414.51-414.51A414,414,0,0,1,357.8-46.37c54.35-165.57,210.16-285.12,393.91-285.12s339.56,119.55,393.9,285.12a414,414,0,0,1,20.6,129.39C1166.205,311.95,980.625,497.53,751.705,497.53Z"/><path class="c" d="M751.7,589.79A505.422,505.422,0,0,1,391.3,439.271,505.057,505.057,0,0,1,244.925,83.02,508.24,508.24,0,0,1,261.631-46.5a503.392,503.392,0,0,1,67.652-150.555,508.445,508.445,0,0,1,110.673-119.5,504.8,504.8,0,0,1,144.029-78.79,509.22,509.22,0,0,1,335.432,0,504.748,504.748,0,0,1,144.026,78.79,508.377,508.377,0,0,1,110.672,119.505A503.355,503.355,0,0,1,1241.768-46.5h0A508.185,508.185,0,0,1,1258.475,83.02,505.062,505.062,0,0,1,1112.1,439.271,505.385,505.385,0,0,1,751.7,589.79Zm0-1012.55c-229.555,0-430.682,154.83-489.106,376.517A507.2,507.2,0,0,0,245.925,83.02c0,134,51.881,260.271,146.086,355.548a505.3,505.3,0,0,0,719.379,0c94.2-95.277,146.085-221.547,146.085-355.548A507.233,507.233,0,0,0,1240.8-46.243h0C1182.377-267.93,981.253-422.76,751.7-422.76Zm0,920.79a412.415,412.415,0,0,1-161.542-32.613A414.666,414.666,0,0,1,336.694,83.02a413.244,413.244,0,0,1,79.334-244.084,416.654,416.654,0,0,1,89.9-90.357,415.149,415.149,0,0,1,491.548,0,416.631,416.631,0,0,1,89.9,90.357A413.275,413.275,0,0,1,1166.7,83.02a415.477,415.477,0,0,1-253.464,382.4A412.382,412.382,0,0,1,751.7,498.03Zm0-829.02A413.608,413.608,0,0,0,337.694,83.02c0,228.286,185.724,414.01,414.01,414.01s414-185.724,414-414.01a413.6,413.6,0,0,0-414-414.01Z"/><path class="h" d="M562.5,643.5c0,106.549-49.3,148.257-171.066,148.257S172.853,758.6,172.853,652.054s-30.535-249.947,91.235-249.947c65.344,0,146.488,38.829,207.66,91.278C524.572,538.677,562.5,594.127,562.5,643.5Z"/><path class="c" d="M391.438,792.258c-145.373,0-219.084-47.172-219.084-140.2,0-17.6-.853-36.62-1.677-55.014-3-66.936-6.1-136.151,27.739-171.541,15.372-16.076,36.854-23.892,65.672-23.892,31.307,0,67.822,9,105.6,26.015a432.863,432.863,0,0,1,102.385,65.383C529.86,542.554,563,597.406,563,643.5c0,54.542-12.724,90.913-40.042,114.464C495.82,781.36,454.028,792.258,391.438,792.258ZM264.088,402.607c-28.53,0-49.775,7.714-64.949,23.583C165.6,461.271,168.687,530.269,171.676,597c.825,18.4,1.678,37.438,1.678,55.059,0,92.369,73.374,139.2,218.084,139.2,62.336,0,103.921-10.82,130.87-34.052C549.39,733.86,562,697.729,562,643.5c0-45.8-33.016-100.378-90.58-149.735C406.838,438.389,325.454,402.607,264.088,402.607Z"/><path class="m" d="M509.565,597.939c-2.337-4.969-8.03-7.251-13.242-8.98-40.307-13.37-82.43-20.277-123.552-30.877s-82.159-25.392-115.159-52.12l.623.931c10.8,33.915,39.039,60.265,71.173,75.567s68.035,20.766,103.515,23.585c24.773,1.967,49.923,2.713,74.263-2.3Z"/><path class="n" d="M940.9,643.5c0,106.549,49.295,148.257,171.066,148.257s218.584-33.154,218.584-139.7,30.535-249.947-91.235-249.947c-65.344,0-146.488,38.829-207.66,91.278C978.828,538.677,940.9,594.127,940.9,643.5Z"/><path class="c" d="M1111.963,792.258c-62.591,0-104.383-10.9-131.523-34.294C953.12,734.413,940.4,698.042,940.4,643.5c0-46.094,33.142-100.947,90.93-150.495a432.863,432.863,0,0,1,102.385-65.383c37.777-17.018,74.293-26.015,105.6-26.015,28.818,0,50.3,7.816,65.671,23.892,33.84,35.39,30.74,104.605,27.741,171.542-.825,18.394-1.677,37.414-1.677,55.013C1331.047,745.086,1257.336,792.258,1111.963,792.258Zm127.349-389.651c-61.366,0-142.749,35.782-207.334,91.158C974.412,543.122,941.4,597.7,941.4,643.5c0,54.229,12.613,90.36,39.695,113.706,26.949,23.232,68.534,34.052,130.871,34.052,144.71,0,218.084-46.835,218.084-139.2,0-17.621.852-36.653,1.678-55.058,2.989-66.726,6.081-135.725-27.464-170.806C1289.087,410.321,1267.842,402.607,1239.312,402.607Z"/><path class="o" d="M993.835,597.939c2.337-4.969,8.03-7.251,13.242-8.98,40.307-13.37,82.43-20.277,123.552-30.877s82.159-25.392,115.159-52.12l-.623.931c-10.8,33.915-39.039,60.265-71.173,75.567s-68.035,20.766-103.515,23.585c-24.773,1.967-49.923,2.713-74.263-2.3Z"/></g></svg>