<svg xmlns="http://www.w3.org/2000/svg" width="831.018" height="831.018" ><defs><style>.a{fill:#4fc5df;}.b{fill:#00adee;}</style></defs><path class="a" d="M415.514,1C186.584,1,1,186.578,1,415.508s185.58,414.51,414.51,414.51,414.5-185.58,414.5-414.51S644.434,1,415.514,1Zm0,812.85c-220,0-398.34-178.34-398.34-398.34s178.34-398.33,398.34-398.33,398.33,178.34,398.33,398.33S635.5,813.848,415.514,813.848Z"/><path class="b" d="M415.514,830.518A415.12,415.12,0,0,1,253.972,33.111,415.117,415.117,0,0,1,577.05,797.905,412.408,412.408,0,0,1,415.514,830.518Zm0-829.02C187.228,1.5,1.5,187.222,1.5,415.508s185.725,414.01,414.011,414.01,414-185.724,414-414.01S643.794,1.5,415.514,1.5Zm0,812.85A398.94,398.94,0,0,1,260.266,48.02a398.938,398.938,0,0,1,310.49,734.985A396.317,396.317,0,0,1,415.514,814.348Zm0-796.67c-219.37,0-397.84,178.466-397.84,397.83s178.47,397.84,397.84,397.84,397.83-178.47,397.83-397.84S634.878,17.678,415.514,17.678Z"/><path class="b" d="M415.514,831.018A415.619,415.619,0,0,1,253.777,32.651,415.617,415.617,0,0,1,577.245,798.365,412.893,412.893,0,0,1,415.514,831.018Zm0-829.02C187.5,2,2,187.5,2,415.508s185.5,413.51,413.511,413.51,413.5-185.5,413.5-413.51S643.518,2,415.514,2Zm0,812.85A399.44,399.44,0,0,1,260.071,47.56a399.438,399.438,0,0,1,310.88,735.906A396.838,396.838,0,0,1,415.514,814.848Zm0-796.67c-219.094,0-397.34,178.242-397.34,397.33s178.246,397.34,397.34,397.34,397.33-178.246,397.33-397.34S634.6,18.178,415.514,18.178Z"/></svg>