<svg xmlns="http://www.w3.org/2000/svg" xmlns:xlink="http://www.w3.org/1999/xlink" width="227.141" height="271.43"><defs><style>.a{fill:none;}.b{fill:#bfa371;}.c{fill:#052f45;}.d{fill:#f7f6f5;}.e{clip-path:url(#a);}.f{fill:#dddad9;}.g{fill:#e2c281;}.h{fill:#0b333f;}</style><clipPath id="a"><path class="a" d="M107.787,7.74c-4.216-2.1-9.168-.726-11.06,3.071-1.785,3.582-.208,8.038,3.515,10.3v0l-88.32,177.22,116.2,57.91s85.93-175.29,85.93-178.53c0-4.99,4.05-12.4,7.97-12.96C222.021,64.749,108.122,7.906,107.787,7.74Z"/></clipPath></defs><path class="b" d="M52.968,19.835H185.581a0,0,0,0,1,0,0v213.27a0,0,0,0,1,0,0H44.527a0,0,0,0,1,0,0V28.276a8.441,8.441,0,0,1,8.441-8.441Z" transform="translate(68.489 -38.041) rotate(26.489)"/><path class="c" d="M130.839,254.038,3.7,190.678l.222-.448L95.281,6.905A8.954,8.954,0,0,1,107.272,2.89L226.41,62.263Zm-125.8-63.81L130.39,252.7,225.069,62.712,106.826,3.785a7.953,7.953,0,0,0-10.65,3.566Z"/><path class="d" d="M107.787,7.74c-4.216-2.1-9.168-.726-11.06,3.071-1.785,3.582-.208,8.038,3.515,10.3v0l-88.32,177.22,116.2,57.91s85.93-175.29,85.93-178.53c0-4.99,4.05-12.4,7.97-12.96C222.021,64.749,108.122,7.906,107.787,7.74Z"/><g class="e"><rect class="f" x="157.613" y="-29.019" width="1" height="134.827" transform="translate(52.399 162.081) rotate(-63.128)"/><rect class="f" x="155.074" y="-22.643" width="1" height="133.588" transform="translate(45.873 162.971) rotate(-63.128)"/><rect class="f" x="155.898" y="-26.848" width="1" height="135.932" transform="translate(49.029 162.044) rotate(-63.128)"/></g><path class="c" d="M128.349,256.911,11.25,198.554,99.594,21.286c-3.722-2.493-5.15-7.015-3.315-10.7a7.765,7.765,0,0,1,4.973-4.006,9.469,9.469,0,0,1,6.758.71h0L222.244,64.3l1.434.715-1.586.227c-3.641.52-7.541,7.761-7.541,12.465,0,3.262-77.181,160.8-85.981,178.75ZM12.591,198.1l115.3,57.463c29.554-60.289,85.183-174.43,85.659-177.885,0-4.688,3.36-11.319,7.128-13.044L107.565,8.188h0a8.471,8.471,0,0,0-6.045-.642,6.78,6.78,0,0,0-4.345,3.489c-1.664,3.34-.234,7.486,3.327,9.645l.394.239-.206.412Z"/><path class="g" d="M104.767,23.244l-2.8-2.3a19.093,19.093,0,0,1-6.844-12.61h0L91.093,16.43,2.85,193.5a15.429,15.429,0,0,0,6.927,20.691l108.4,54.023a7.23,7.23,0,0,0,9.7-3.246l91.9-184.41Z"/><path class="c" d="M121.4,269.478a7.7,7.7,0,0,1-3.441-.816L9.554,214.639A15.947,15.947,0,0,1,2.4,193.278L95.435,6.6l.189,1.683a18.49,18.49,0,0,0,6.664,12.278l2.753,2.264L220.447,80.335l-.223.448-91.9,184.409a7.752,7.752,0,0,1-6.925,4.286ZM94.872,9.969,3.3,193.724a14.946,14.946,0,0,0,6.7,20.02l108.4,54.023a6.727,6.727,0,0,0,9.024-3.022L219.106,80.784,104.493,23.667l-2.84-2.336A19.476,19.476,0,0,1,94.872,9.969Z"/><path class="h" d="M102.084,82.153l-3.917,7.86-2.05-1.021,3.917-7.861-2.748-1.37.838-1.682,7.546,3.761-.838,1.682Z"/><path class="h" d="M107.991,89.926l-2.406-1.2L103.6,92.718l-2.065-1.028,4.755-9.543,2.064,1.029-1.927,3.869,2.406,1.2,1.928-3.869L112.82,85.4l-4.755,9.542L106,93.917Z"/><path class="h" d="M109.448,95.635l4.755-9.542,6.1,3.039-.838,1.681L115.416,88.8l-1.09,2.188,3.91,1.948-.838,1.682-3.91-1.949-1.151,2.31,4.047,2.017-.838,1.682Z"/><path class="h" d="M129.961,104.168l-.123-.061a2.459,2.459,0,0,1-2.889.455c-1.873-.934-1.978-3.256-.467-6.291,1.616-3.24,3.663-4.438,6.138-3.2a3.533,3.533,0,0,1,1.966,4.41l-2.147-.489c.2-.909.258-1.817-.685-2.287-1.039-.518-1.878.207-2.641,1.738L128.337,100c-.771,1.545-.878,2.755.311,3.348a1.47,1.47,0,0,0,2.11-.775l.347-.7-1.627-.81.723-1.449,3.458,1.723-2.541,5.1-1.831-.912Z"/><path class="h" d="M134.387,108.063l-2.023-1.008,4.755-9.542,3.691,1.839a3.069,3.069,0,0,1,1.413,4.493A2.873,2.873,0,0,1,139.2,105.7l-.027,4.748-2.242-1.118.166-4.338-.946-.47Zm3.731-4.54c.956.476,1.454.3,1.87-.535l.2-.411c.415-.834.258-1.339-.7-1.816l-1.177-.586-1.376,2.762Z"/><path class="h" d="M140.076,110.9l4.755-9.542,6.1,3.038-.838,1.682-4.047-2.017-1.09,2.187,3.911,1.95-.838,1.681-3.911-1.949-1.151,2.311,4.047,2.016-.838,1.682Z"/><path class="h" d="M152.859,117.269l.543-2.6-2.611-1.3-1.732,2-2.079-1.036,7.339-8.254,2.9,1.444-2.171,10.83Zm1.921-8.48-.109-.054-2.728,3.145,1.969.982Z"/><path class="h" d="M162.793,112.407l-3.917,7.86-2.051-1.022,3.917-7.86-2.748-1.37.838-1.682,7.547,3.761-.838,1.682Z"/><path class="h" d="M95.066,102.95l1.843-.72a3.618,3.618,0,0,0,1.847,2.32c.971.483,1.73.3,2.138-.522.334-.67.135-1.161-.719-1.775l-.916-.661a2.893,2.893,0,0,1-1.072-3.947c.913-1.832,2.716-2.265,4.876-1.188a4.648,4.648,0,0,1,2.619,2.892l-1.807.72a3.056,3.056,0,0,0-1.629-1.938c-.916-.456-1.571-.305-1.946.447-.327.657-.089,1.133.76,1.761l.91.675a2.885,2.885,0,0,1,1.084,3.885c-.893,1.791-2.805,2.477-5.2,1.285A4.885,4.885,0,0,1,95.066,102.95Z"/><path class="h" d="M102.67,108.377l.756-1.517,2.05,1.022,3.244-6.507-2.051-1.022.756-1.518,6.152,3.066-.756,1.517L110.77,102.4l-3.243,6.508,2.051,1.022-.756,1.517Z"/><path class="h" d="M110.56,112.31l4.755-9.543,2.065,1.029-3.917,7.861,4.1,2.043-.838,1.682Z"/><path class="h" d="M118.053,116.043l4.754-9.542,6.1,3.038-.838,1.682L124.02,109.2l-1.089,2.188,3.91,1.948L126,115.022l-3.91-1.948-1.152,2.31,4.047,2.016-.838,1.681Z"/><path class="h" d="M130.511,114.333l-.151-.075L127.2,120.6l-1.75-.872,4.755-9.543,2.461,1.226-.987,7.427.15.075,3.161-6.343,1.75.872-4.755,9.542-2.461-1.226Z"/><path class="h" d="M135.211,118.638c1.559-3.131,3.662-4.336,6.218-3.062a3.554,3.554,0,0,1,2.007,4.431l-2.145-.489c.244-1,.229-1.831-.727-2.308-1.107-.552-1.994.167-2.751,1.684l-.831,1.668c-.756,1.517-.8,2.659.312,3.21.956.477,1.625-.01,2.28-.809l1.682,1.419a3.555,3.555,0,0,1-4.746,1.065C133.954,124.172,133.65,121.768,135.211,118.638Z"/><path class="h" d="M141.023,127.491l4.755-9.542,6.1,3.038-.838,1.682-4.047-2.017-1.09,2.187,3.91,1.948-.837,1.682-3.911-1.948-1.151,2.31,4.047,2.017-.838,1.682Z"/><path class="h" d="M70.32,172.2l-2.365,4.746-.639-.318,2.366-4.746-1.769-.881.276-.555,4.176,2.082-.276.554Z"/><path class="h" d="M70.3,178.117l2.641-5.3,3.265,1.627-.276.553L73.3,173.689l-.89,1.784,2.535,1.264-.275.554-2.535-1.263-.924,1.852,2.627,1.309-.277.554Z"/><path class="h" d="M77.227,174.955l1.481.738c1.291.643,1.475,1.873.609,3.611s-1.96,2.332-3.251,1.689l-1.48-.738Zm-.914,5.468c.843.42,1.594.018,2.123-1.046l.41-.82c.529-1.063.4-1.905-.444-2.325l-.813-.405L75.5,180.019Z"/><path class="h" d="M84.224,181.749c.878-1.761,2-2.426,3.288-1.783a1.865,1.865,0,0,1,1.053,1.976l-.672-.023a1.229,1.229,0,0,0-.658-1.4c-.842-.42-1.59.071-2.12,1.134l-.431.865c-.53,1.063-.47,1.955.372,2.375a1.229,1.229,0,0,0,1.513-.317l.422.524a1.867,1.867,0,0,1-2.212.348C83.488,184.805,83.347,183.511,84.224,181.749Z"/><path class="h" d="M91.136,185.5l-2.065-1.029-1.2,2.407-.639-.318,2.642-5.3.639.318-1.165,2.339,2.064,1.029,1.165-2.338.639.317-2.642,5.3-.639-.317Z"/><path class="h" d="M91.516,188.692l.254-.508,1.321.658,2.133-4.283L93.9,183.9l.254-.509,3.28,1.635-.254.508-1.322-.658-2.134,4.282,1.323.66-.254.508Z"/><path class="h" d="M98.785,192.314l.3-1.734-1.86-.927-1.2,1.288-.661-.33,4.267-4.49.843.42-1.017,6.11Zm.96-5.294-.068-.033-2.02,2.187,1.557.776Z"/><path class="h" d="M102.859,188.742l-.053-.026-2.237,4.488-.576-.288,2.642-5.3.9.45-.407,5.341.053.028,2.214-4.443.576.289-2.641,5.3-.9-.45Z"/><path class="h" d="M107.362,195.707l-.038-.019a1.316,1.316,0,0,1-1.6.2c-1.146-.571-1.222-1.823-.36-3.554.9-1.807,2-2.473,3.275-1.837a1.834,1.834,0,0,1,1.07,1.983l-.673-.022a1.227,1.227,0,0,0-.649-1.395c-.851-.424-1.583.074-2.114,1.137l-.408.82c-.529,1.063-.593,1.97.273,2.4a1.16,1.16,0,0,0,1.65-.571l.272-.547-1.117-.557.254-.508,1.709.852-1.306,2.619-.592-.295Z"/></svg>