<svg xmlns="http://www.w3.org/2000/svg" xmlns:xlink="http://www.w3.org/1999/xlink" width="200" height="200" viewBox="0 0 200 200"><defs><style>.a{fill:none;}.b{fill:#f26522;}.c{clip-path:url(#a);}.d{fill:#a02a22;}.e{fill:#ffde17;}</style><clipPath id="a"><circle class="a" cx="100" cy="100" r="91.81"/></clipPath></defs><circle class="b" cx="100" cy="100" r="85.41"/><g class="c"><path class="d" d="M59.14-2.72c3.44,32.56,44.19,35.84,63.77,55.51,24.54,25.57,65.92,101,105.41,64.77C169.68,82,121.37,27.92,59.75-3.88"/><path class="d" d="M29.69,24.65c16.4,60,82.43,95.3,72.15,103.63C73.67,98-15.14,73.32,29.21,24"/><path class="e" d="M178.42,184C162,124,96,88.66,106.27,80.33c28.18,30.25,117,55,72.64,104.26"/><path class="e" d="M-2.06,76.54C19,113.4,56.3,155.76,46,164.09c-28.18-30.26-48.43-38-48.57-88.18"/><path class="d" d="M155.83,190c-24-33.76-91.21-21.15-102.34-61.4,12.85,46.49,34.15,74.19,103,61.52"/></g></svg>