<svg xmlns="http://www.w3.org/2000/svg" width="200" height="200" viewBox="0 0 200 200"><defs><style>.a{fill:#e0e0d3;}.b{fill:#ccac72;}</style></defs><path class="a" d="M156.87,129.14c-29.94,63.22-83.77,63.93-116.68,36.48-.4-.48-.77-1-1.16-1.47C-42.35,58.41,47.38,92.68,73.38,50.86,94.6,16.71,135.12-4.52,169,23.66,195.48,56.12,176.64,87.42,156.87,129.14Z"/><path class="b" d="M59.68,99.93c-9,5.9-18,9.22-24,9.26a5.2,5.2,0,0,1-3.14-2.06c-3.29-5,4.91-16.2,18.3-25,9-5.91,18-9.22,24-9.26A5.13,5.13,0,0,1,78,74.93C81.26,80,73.07,91.13,59.68,99.93Z"/><path class="b" d="M158,103.72c-5.82,9.25-14,15.35-21.16,16.67a10.86,10.86,0,0,1-3.62-1.44c-8.18-5.15-7.89-20.31.65-33.87,5.82-9.25,14-15.36,21.17-16.67a10.59,10.59,0,0,1,3.62,1.45C166.8,75,166.51,90.16,158,103.72Z"/><path class="b" d="M93.45,133.19c-4.52,3-9.22,4.33-12.32,3.85-2-3,1.63-8.91,8.07-13.15,4.51-3,9.22-4.33,12.31-3.85,0,0,0,0,0,0C103.52,123.08,99.89,129,93.45,133.19Z"/><path class="b" d="M118.27,46.61a20,20,0,0,1-12,3.53,8.89,8.89,0,0,1-4.73-3.53c-3.49-5.32-.2-13.66,7.37-18.61a20,20,0,0,1,12-3.53A8.87,8.87,0,0,1,125.64,28C129.14,33.31,125.84,41.65,118.27,46.61Z"/><path class="b" d="M99.41,88.78a8.81,8.81,0,0,1-4.6,1.51A4,4,0,0,1,93.28,89c-1.53-2.34-.11-6,3.18-8.14A8.83,8.83,0,0,1,101,79.3a3.74,3.74,0,0,1,1.55,1.34C104.13,83,102.7,86.62,99.41,88.78Z"/></svg>