<svg xmlns="http://www.w3.org/2000/svg" xmlns:xlink="http://www.w3.org/1999/xlink" width="200" height="200" viewBox="0 0 200 200"><defs><style>.a{fill:none;}.b{fill:#e3c280;}.c{clip-path:url(#a);}.d{fill:#e1e0d3;}</style><clipPath id="a"><circle class="a" cx="100" cy="100" r="92.41"/></clipPath></defs><circle class="b" cx="100" cy="100" r="92.41"/><g class="c"><path class="d" d="M123.64,86.46l-1-.92.44-.5c15.8-17.72,32.15-36,49.73-29.43C189.45,61.88,203,62,213,55.87c13.87-8.45,16.08-26.16,16.1-26.34l1.38.16c0,.18-2.3,18.55-16.74,27.36-10.39,6.34-24.32,6.29-41.42-.14C155.58,50.63,139.58,68.6,124.09,86Z"/><path class="d" d="M131.58,93.49l-1-.93.39-.44c14.89-16.69,31-31.26,47.85-24.78,16.2,6.16,29.43,6.58,39.33,1.26,11.54-6.22,14.37-18.33,14.39-18.45l1.36.3A31.42,31.42,0,0,1,218.79,69.8C208.52,75.34,194.9,75,178.3,68.63c-16.08-6.17-31.76,8.09-46.33,24.42Z"/><path class="d" d="M139.52,100.51l-1-.92.34-.38c16.95-19,32-25.6,46-20.15,40.43,15.76,50.75-7.34,51.17-8.33l1.28.53c-.11.26-11.2,25.36-52.95,9.09-13.39-5.21-27.93,1.26-44.45,19.78Z"/><path class="d" d="M147.46,107.54l-1-.92.29-.32c14-15.74,29.7-21.25,44.12-15.51,35.52,14.13,48.58.57,48.71.43l1,.94c-.54.59-13.74,14.44-50.24-.08-13.84-5.51-29-.13-42.57,15.14Z"/><path class="d" d="M155.39,114.57l-1-.92.24-.27c11.67-13.09,27.07-17,42.24-10.87,30.75,12.54,46.33,9.23,46.48,9.2l.31,1.35c-.64.14-16.09,3.46-47.31-9.26-14.6-6-29.43-2.13-40.69,10.5Z"/><path class="d" d="M246.65,133.72c-.18-.07-18.34-7.3-44.32-18.2-15.52-6.52-29.67-4.38-38.81,5.87l-.18.2-1-.92.18-.2c9.56-10.72,24.28-13,40.38-6.23,26,10.9,44.12,18.12,44.3,18.19Z"/><path class="d" d="M249.88,154.29c-.57-.5-57.28-49.58-78.48-25.82l-.13.15-1-.92.13-.15c22.1-24.78,78,23.62,80.42,25.7Z"/><path class="d" d="M79.79,198.62l-.32-1.35c.18,0,17.52-4.26,24.34-19,4.92-10.63,3.29-24.06-4.84-39.91-8.57-16.72,7.77-35,23.57-52.75l.44-.5,1,.92-.44.5c-15.49,17.37-31.5,35.33-23.36,51.2,8.33,16.26,10,30.1,4.85,41.13C98,194.22,80,198.58,79.79,198.62Z"/><path class="d" d="M100.81,199.65l-.46-1.31c.12,0,11.83-4.22,16.69-16.4,4.16-10.44,2.23-23.54-5.74-38.93-8.35-16,4.28-33.66,19.17-50.36l.4-.44,1,.92-.39.44c-14.56,16.33-26.94,33.54-19,48.8,8.17,15.78,10.11,29.27,5.78,40.1A31.4,31.4,0,0,1,100.81,199.65Z"/><path class="d" d="M121.87,200.65l-.68-1.21c.94-.53,22.71-13.41,2.45-51.79-7-13.28-2.18-29,14.77-48l.34-.38,1,.92-.34.38c-16.52,18.53-21.29,33.71-14.58,46.42C145.78,186.63,122.11,200.51,121.87,200.65Z"/><path class="d" d="M143,201.55l-1-.91c.12-.14,12.11-14.67-6-48.35-7.34-13.66-3.65-29.85,10.38-45.59l.29-.32,1,.92-.29.32c-13.61,15.27-17.23,30.9-10.19,44C155.79,186.25,143.53,200.94,143,201.55Z"/><path class="d" d="M164.12,202.22l-1.38-.15c0-.16,1.53-16-14.43-45.13-7.88-14.37-5.7-30.12,6-43.21l.24-.27,1,.92-.24.27c-11.26,12.63-13.37,27.8-5.8,41.62C165.73,185.83,164.19,201.56,164.12,202.22Z"/><path class="d" d="M183.77,203.52c-.09-.17-9.34-17.38-23.13-41.94-8.55-15.23-8-30.11,1.59-40.83l.18-.2,1,.92-.19.2c-9.14,10.25-9.65,24.55-1.41,39.23,13.8,24.57,23.05,41.79,23.14,42Z"/><path class="d" d="M204.86,204.75c-2.33-2.12-56.79-52.19-34.7-77l.13-.15,1,.92-.13.15c-21.19,23.77,34,74.52,34.59,75Z"/><path class="d" d="M-1.14,121.13c0-.14.09-13.58,9.75-21.16,7-5.45,17-6.61,29.88-3.42,12.57,3.1,22.6-11.21,32.3-25.06l.27-.39.83.57-.28.4C61.72,86.19,51.5,100.79,38.25,97.52c-12.56-3.1-22.32-2-29,3.24C0,108-.13,121-.13,121.12Z"/><path class="d" d="M-4.37,106.54l-1-.1A22.83,22.83,0,0,1,3.86,91.2c6.93-4.86,16.79-5.74,29.3-2.6,12.12,3.09,22.22-8.53,31.34-21.55l.24-.35.83.58-.25.35C56,80.94,45.63,92.81,32.91,89.58,20.71,86.51,11.13,87.33,4.45,92A22.21,22.21,0,0,0-4.37,106.54Z"/><path class="d" d="M-8.62,92l-1-.28c.05-.19,5.92-19.24,37.41-11.06,10.1,2.62,20-3.28,30.38-18l.21-.3.82.58-.21.3C48.42,78.34,38.13,84.37,27.58,81.63-3,73.7-8.56,91.82-8.62,92Z"/><path class="d" d="M-12.93,77.52l-.81-.59c.34-.47,8.68-11.59,36.24-4.21C33,75.51,43.39,70.35,51.91,58.18l.19-.26.82.58-.18.25C44,71.3,33.13,76.6,22.24,73.69-4.65,66.5-12.85,77.41-12.93,77.52Z"/><path class="d" d="M24.33,66.78a28.12,28.12,0,0,1-7.43-1C-6.33,59.32-17.29,63-17.4,63.07l-.34-1c.45-.16,11.32-3.87,34.91,2.66,11,3,21.41-1,28.45-11l.15-.22.83.58-.15.21C40.75,62.46,32.94,66.78,24.33,66.78Z"/><path class="d" d="M21.28,59.26a35.18,35.18,0,0,1-9.72-1.46c-19.65-5.65-33.36-9.32-33.49-9.35l.26-1c.13,0,13.85,3.7,33.51,9.35,11.76,3.38,21.78.63,27.49-7.53l.12-.17.82.58-.11.16C35.84,56,29.22,59.26,21.28,59.26Z"/><path class="d" d="M19.23,52.13C.77,52.13-24.9,34.72-26.32,33.74l.57-.83c.45.32,45.54,30.89,58.79,12l.09-.12.82.58-.08.12C30.47,50.28,25.23,52.13,19.23,52.13Z"/><path class="d" d="M71.66,72l-.83-.58.28-.4c9.69-13.84,19.72-28.16,12.5-38.91-7.4-11-9.75-20.86-7-29.25C80.43-8.81,93-13.48,93.15-13.53l.35.95c-.13,0-12.28,4.56-15.94,15.77-2.64,8.08-.33,17.63,6.88,28.37,7.61,11.33-2.62,25.93-12.5,40.05Z"/><path class="d" d="M65.37,67.57,64.54,67l.25-.35c9.11-13,16.57-26.49,9.53-36.81C67.09,19.14,64.54,9.58,66.74,1.4A22.81,22.81,0,0,1,77.91-12.48l.43.9A22.25,22.25,0,0,0,67.71,1.67c-2.12,7.89.39,17.17,7.44,27.59,7.39,10.83-.22,24.64-9.54,38Z"/><path class="d" d="M59.07,63.13l-.82-.58.22-.3C68.8,47.48,71,36.13,65,27.53,46.58.73,62.47-11.29,62.63-11.41l.59.81C62.59-10.14,48,1,65.86,27c6.19,9,4,20.71-6.57,35.86Z"/><path class="d" d="M52.79,58.69,52,58.11l.18-.26c8.52-12.17,9.8-23.75,3.61-32.61C39.39,1.86,47-9.78,47.31-10.26l.83.56c-.07.12-7.48,11.61,8.43,34.36C63,33.9,61.75,45.89,53,58.43Z"/><path class="d" d="M46.49,54.25l-.82-.58.15-.21c7-10.07,7.28-21.19.64-30.51C32.26,3,32-8.47,32-8.95h1c0,.12.26,11.68,14.25,31.32C54.18,32.06,54,43.6,46.64,54Z"/><path class="d" d="M40.21,49.81l-.83-.58.12-.16c5.72-8.17,4.87-18.53-2.33-28.41C25.14,4.11,17-7.52,16.92-7.64l.82-.58C17.82-8.1,26,3.53,38,20.06c7.46,10.26,8.31,21,2.33,29.58Z"/><path class="d" d="M33.92,45.37l-.83-.57.08-.12C46.44,25.73,2.29-6.17,1.84-6.49l.58-.82C4.29-6,47.83,25.5,34,45.25Z"/></g></svg>