<svg xmlns="http://www.w3.org/2000/svg" xmlns:xlink="http://www.w3.org/1999/xlink" width="200" height="200" viewBox="0 0 200 200"><defs><style>.a{fill:none;}.b{fill:#c54a48;}.c{fill:#f26522;}.d{fill:#a02a22;}.e{clip-path:url(#a);}</style><clipPath id="a"><circle class="a" cx="100" cy="100" r="72.67"/></clipPath></defs><path class="b" d="M61.79,177.29l-5.51-8.11c4.12-2.8,8.43-5.91,12.82-9.23a481.29,481.29,0,0,0,48.3-42.55C137.59,97.22,155.08,76.68,168,58l8.07,5.58c-13.24,19.14-31.13,40.15-51.72,60.75A490.46,490.46,0,0,1,75,167.76C70.5,171.19,66.05,174.39,61.79,177.29Z"/><path class="b" d="M16.93,198.88c-4.63,0-8.59-1.29-11.56-4.25-8.28-8.29-4.79-24.39,10.68-49.2,13.32-21.35,34.08-46.54,58.46-70.92s49.57-45.14,70.92-58.46c24.82-15.47,40.91-19,49.19-10.68s4.8,24.39-10.67,49.2c-13.32,21.35-34.08,46.54-58.46,70.92A492.54,492.54,0,0,1,76,169.06h0C56.68,183.71,32.82,198.88,16.93,198.88ZM183,14.09c-4,0-13.27,2.23-30.63,13.06-20.53,12.8-44.89,32.9-68.59,56.6S40,131.81,27.15,152.34c-14.53,23.31-13.58,32-12.53,33,2.1,2.1,18.67-.34,53.49-26.74a480.16,480.16,0,0,0,48.14-42.39c23.7-23.7,43.8-48.06,56.6-68.59,14.53-23.31,13.58-32,12.53-33A3.76,3.76,0,0,0,183,14.09Z"/><path class="c" d="M17,193.44c-3.36,0-6-.87-7.76-2.67C-2.91,178.64,27.46,129.26,78.36,78.36c24.1-24.1,48.94-44.58,70-57.68C169.72,7.32,184.8,3.25,190.77,9.23s1.91,21.05-11.45,42.46c-13.1,21-33.58,45.85-57.68,70a486.15,486.15,0,0,1-48.92,43.08h0C48.1,183.38,28.33,193.44,17,193.44ZM182.93,8.66c-7.25,0-18.87,4.76-33.47,13.87-20.87,13-45.58,33.39-69.56,57.37-48.37,48.37-80,98.44-69.13,109.33C17.58,196,41.38,185.74,71.4,163h0a485.45,485.45,0,0,0,48.7-42.89c24-24,44.36-48.69,57.37-69.56,12.58-20.17,16.87-34.67,11.76-39.77C187.82,9.36,185.69,8.66,182.93,8.66Z"/><circle class="d" cx="100" cy="100" r="72.67"/><g class="e"><path class="c" d="M-.55,123.13a3.27,3.27,0,0,1-2.32-1,3.27,3.27,0,0,1,0-4.62L43.82,71.24a3.27,3.27,0,1,1,4.61,4.64L1.75,122.19A3.26,3.26,0,0,1-.55,123.13Z"/><path class="c" d="M76.08,90.53A3.26,3.26,0,0,1,73.78,85l63.05-62.56A3.27,3.27,0,1,1,141.44,27L78.38,89.59A3.25,3.25,0,0,1,76.08,90.53Z"/><path class="c" d="M40.16,170.06a5.45,5.45,0,0,1-3.84-9.32L111.66,86a5.45,5.45,0,0,1,7.67,7.74L44,168.48A5.46,5.46,0,0,1,40.16,170.06Z"/><path class="c" d="M141,125.29a3.27,3.27,0,0,1-2.3-5.59l96.9-96.13a3.27,3.27,0,1,1,4.6,4.64l-96.9,96.13A3.26,3.26,0,0,1,141,125.29Z"/><path class="c" d="M73,54.09a1.61,1.61,0,0,1-1.16-.49,1.63,1.63,0,0,1,0-2.31L110,13.38a1.63,1.63,0,1,1,2.3,2.32L74.11,53.61A1.63,1.63,0,0,1,73,54.09Z"/><path class="c" d="M104,179.28a2.72,2.72,0,0,1-1.91-4.66l24.29-24.1a2.73,2.73,0,0,1,3.84,3.87l-24.3,24.1A2.74,2.74,0,0,1,104,179.28Z"/></g><path class="b" d="M62.71,178.64l-7.35-10.81c4.1-2.79,8.39-5.88,12.75-9.19a480.16,480.16,0,0,0,48.14-42.39c20.12-20.12,37.54-40.58,50.4-59.17l10.75,7.43c-13.29,19.23-31.24,40.32-51.91,61A492.54,492.54,0,0,1,76,169.06C71.47,172.5,67,175.73,62.71,178.64Z"/><path class="c" d="M59.65,174.13l-1.23-1.8c4.18-2.84,8.54-6,13-9.34a485.45,485.45,0,0,0,48.7-42.89c20.35-20.35,38-41.07,51-59.92l1.79,1.24c-13.11,19-30.84,39.78-51.28,60.22a486.15,486.15,0,0,1-48.92,43.08C68.25,168.11,63.85,171.27,59.65,174.13Z"/></svg>