<svg xmlns="http://www.w3.org/2000/svg" xmlns:xlink="http://www.w3.org/1999/xlink" width="200" height="200" viewBox="0 0 200 200"><defs><style>.a{fill:none;}.b{fill:#50c5df;}.c{clip-path:url(#a);}.d{fill:#e1e0d3;}</style><clipPath id="a"><circle class="a" cx="100" cy="100" r="96.03"/></clipPath></defs><circle class="b" cx="100" cy="100" r="96.03"/><g class="c"><path class="d" d="M122.34,117.4l.48-1.36.65.23c23.26,8.21,47.32,16.71,47.89,36.22.55,18.5,5.79,31.54,15.6,38.75,13.59,10,31.49,5.15,31.67,5.1l.39,1.38c-.19.05-18.74,5.1-32.91-5.31-10.18-7.49-15.63-20.91-16.19-39.88-.54-18.54-24.13-26.85-46.93-34.9Z"/><path class="d" d="M118.71,127.8l.48-1.36.58.21c21.92,7.74,42.27,17.48,42.69,36.24.46,18,5.26,30.89,14.29,38.31,10.53,8.65,23.28,6.59,23.41,6.57l.24,1.42a32.62,32.62,0,0,1-24.55-6.87c-9.37-7.69-14.36-20.94-14.83-39.39-.4-17.89-20.29-27.36-41.73-34.93Z"/><path class="d" d="M115.08,138.2l.48-1.36.5.18c25,8.81,37.22,20.68,37.5,36.28.78,45.08,27.06,45.9,28.18,45.92v1.44c-.29,0-28.8-.78-29.61-47.34-.26-14.93-12.22-26.36-36.54-34.94Z"/><path class="d" d="M111.45,148.61l.48-1.36.43.15c20.66,7.29,32.13,20.19,32.29,36.31.41,39.72,18.6,46.94,18.79,47l-.5,1.36c-.79-.29-19.31-7.52-19.73-48.35-.16-15.47-11.29-27.89-31.33-35Z"/><path class="d" d="M107.82,159l.48-1.36.35.12c17.19,6.07,27.07,19.32,27.1,36.34.07,34.51,9.38,48.19,9.48,48.32l-1.18.83c-.39-.56-9.67-14.12-9.74-49.14,0-16.39-9.56-29.14-26.14-35Z"/><path class="d" d="M125.37,254.31c0-.21-.21-20.52,0-49.8.15-17.49-7.48-30.26-20.94-35l-.27-.1.47-1.36.28.1c14.07,5,22,18.22,21.9,36.37-.25,29.27,0,49.57,0,49.77Z"/><path class="d" d="M106.87,265.52c.25-.75,25.09-74.63-6.11-85.64l-.19-.07.48-1.36.19.07c32.54,11.49,8.05,84.37,7,87.46Z"/><path class="d" d="M-2.8,119.43l1.18-.83c.11.15,11,15.17,27.85,15.91,12.16.54,24.43-6.31,36.47-20.38,12.7-14.83,36.75-6.34,60,1.87l.65.23-.47,1.36-.66-.23c-22.8-8-46.38-16.37-58.44-2.29-12.35,14.42-25,21.45-37.64,20.88C8.59,135.17-2.68,119.59-2.8,119.43Z"/><path class="d" d="M4.5,140.05l1.08-1c.08.09,8.72,9.7,22.35,9.57,11.68-.11,23.51-7.12,35.17-20.85,12.09-14.34,34.05-9.15,56-1.42l.58.21-.48,1.36-.58-.21c-21.44-7.56-42.87-12.68-54.4,1C52.25,142.82,40,150,27.92,150.11A32.63,32.63,0,0,1,4.5,140.05Z"/><path class="d" d="M11.84,160.7l.89-1.13c.88.69,21.85,16.55,50.77-18.06,10-12,27-13.51,52-4.7l.5.17-.47,1.36-.51-.17c-24.32-8.59-40.8-7.19-50.37,4.27C34.74,178.17,12.06,160.87,11.84,160.7Z"/><path class="d" d="M19.3,181.37l.46-1.36c.19.06,18.88,5.86,44.13-24.81,10.25-12.44,27.27-15.28,47.94-8l.42.15-.48,1.36-.42-.15c-20-7.08-36.51-4.4-46.35,7.55C39.05,187.64,20.1,181.64,19.3,181.37Z"/><path class="d" d="M27,201.94l-.4-1.39c.16,0,16-4.84,37.71-31.66C75,155.66,91,151.54,108.2,157.61l.35.12-.48,1.36-.35-.12c-16.58-5.85-32-1.91-42.31,10.83C43.37,197,27.64,201.75,27,201.94Z"/><path class="d" d="M33.48,221.35c.12-.16,13-15.83,31.21-38.77C76,168.36,90.5,163.05,104.57,168l.27.1-.48,1.36-.27-.1c-13.45-4.75-27.41.39-38.28,14.11-18.18,22.94-31.1,38.62-31.22,38.78Z"/><path class="d" d="M40.6,242.11c1.12-3.07,27.81-75.18,60.34-63.69l.19.06-.47,1.36-.2-.06c-31.2-11-58.23,62.09-58.5,62.83Z"/><path class="d" d="M39.83,11.08C40,11,52.91,5.81,64,12.11c8,4.53,13,13.74,15.07,27.39,2,13.31,19.69,17.31,36.82,21.17l.49.11-.23,1-.49-.11c-17.48-4-35.55-8-37.62-22.05-2-13.3-6.87-22.26-14.55-26.63-10.65-6-23.15-1-23.27-1Z"/><path class="d" d="M52.58,2.23l-.3-1A23.75,23.75,0,0,1,70.57,4.09C78,8.84,82.71,18,84.62,31.24c1.8,12.87,17,18,33.07,21.64l.43.1-.23,1-.43-.09c-16.48-3.72-32-9-33.88-22.51C81.72,18.44,77.16,9.56,70,5A23,23,0,0,0,52.58,2.23Z"/><path class="d" d="M64.89-7.6l-.12-1C65-8.66,85.61-10.52,90.15,23c1.46,10.75,11,18,29.33,22.1l.37.08-.23,1-.37-.08c-18.75-4.23-28.6-11.75-30.13-23C84.7-9.39,65.08-7.62,64.89-7.6Z"/><path class="d" d="M77.11-17.45l.24-1c.59.14,14.57,3.78,18.34,33.19,1.43,11.14,10.51,19.15,25.58,22.55l.32.07-.24,1L121,38.3c-15.52-3.5-24.89-11.82-26.38-23.44C91-13.84,77.25-17.41,77.11-17.45Z"/><path class="d" d="M102.12,14.15a28.67,28.67,0,0,1-1.93-7.55c-3-24.88-10.87-34-11-34l.78-.7c.33.37,8.18,9.35,11.21,34.61,1.41,11.82,9.37,20.2,21.82,23l.27.06-.23,1-.27-.06C112.75,28.23,105.51,22.42,102.12,14.15Z"/><path class="d" d="M108.15,8.25a36.89,36.89,0,0,1-2.43-9.92c-2.31-21.13-4.19-35.75-4.2-35.89l1-.14c0,.15,1.9,14.78,4.21,35.92,1.39,12.63,8,21.18,18.08,23.46l.21.05-.23,1-.2-.05C117,21,111.28,15.88,108.15,8.25Z"/><path class="d" d="M114.2,3.47c-7.27-17.75-.65-49.3-.28-51l1,.22c-.12.56-11.76,56,11.68,61.24l.15,0-.23,1-.15,0C120.4,13.55,116.57,9.24,114.2,3.47Z"/><path class="d" d="M115.75,61.71l.23-1,.49.11c17.13,3.87,34.85,7.87,42.34-3.32C166.49,46,175,39.89,184.18,39.22c12.73-.92,22.19,9.35,22.29,9.45l-.78.71c-.09-.11-9.22-10-21.44-9.12-8.82.65-17.08,6.64-24.57,17.81-7.9,11.77-26,7.7-43.44,3.75Z"/><path class="d" d="M117.54,53.92l.23-1,.43.1c16.11,3.64,32,5.5,39.16-5.34C164.78,36.49,173,30.27,181.7,29.16a23.74,23.74,0,0,1,17.75,5.26l-.7.78a23.09,23.09,0,0,0-16.93-5c-8.41,1.07-16.35,7.14-23.59,18C150.72,59.6,134.45,57.73,118,54Z"/><path class="d" d="M119.33,46.12l.23-1,.37.08c18.28,4.12,30,1.72,36-7.36,18.5-28.31,36.32-17.77,36.5-17.66l-.55.89c-.69-.43-17.16-10.08-35.07,17.34-6.2,9.49-18.33,12-37.08,7.81Z"/><path class="d" d="M121.12,38.32l.23-1,.31.07c15.07,3.4,26.71.06,32.79-9.39,16-24.94,30.21-22.23,30.81-22.1l-.22,1c-.14,0-14.11-2.62-29.71,21.65C149,38.4,137,41.89,121.43,38.39Z"/><path class="d" d="M122.9,30.52l.24-1,.26.06c12.45,2.81,23.24-1.35,29.59-11.41C166.57-3.36,177.51-8.11,178-8.3l.4,1c-.1,0-11.12,4.85-24.5,26-6.6,10.46-17.79,14.78-30.7,11.87Z"/><path class="d" d="M124.7,22.72l.22-1,.21.05c10.11,2.28,19.73-2.62,26.4-13.43,11.17-18.1,19.15-30.51,19.23-30.63l.88.57c-.08.12-8.06,12.52-19.22,30.61-6.92,11.22-16.95,16.28-27.52,13.9Z"/><path class="d" d="M126.49,14.93l.22-1,.15,0c23.44,5.29,36.72-49.74,36.85-50.3l1,.24c-.55,2.32-13.66,56.59-38.1,51.08Z"/></g></svg>