<svg xmlns="http://www.w3.org/2000/svg" xmlns:xlink="http://www.w3.org/1999/xlink" width="200" height="200" viewBox="0 0 200 200"><defs><style>.a{fill:none;}.b{fill:#0c7aa6;}.c{clip-path:url(#a);}.d{fill:#50c5df;}</style><clipPath id="a"><circle class="a" cx="100" cy="100" r="90.29"/></clipPath></defs><circle class="b" cx="100" cy="100" r="83.99"/><g class="c"><path class="d" d="M.16,57c25,20.24,55.65-5.81,82.94-5.76C118,52,199.2,75.67,201.44,23,136,39,64.74,35-.22,55.76"/><path class="d" d="M-1.28,96.49c53.09,30.3,123.58,9,122.23,21.89-40.63-1.44-119.57,43.13-123-22"/><path class="d" d="M212.92,103.85C159.82,73.56,89.33,94.9,90.68,82c40.63,1.44,119.57-43.13,123,22"/><path class="d" d="M12.71,154.66c40.29,11,95.67,14.5,94.32,27.44-40.63-1.44-60.11,7.25-95.09-27.54"/><path class="d" d="M201.41,123.76c-40.14-6.81-78.14,48.72-113.87,28.47,41.27,23.39,75.34,27.84,114.44-28.87"/></g></svg>