<svg xmlns="http://www.w3.org/2000/svg" width="147.53" height="147.53" viewBox="0 0 147.53 147.53"><defs><style>.a,.c{fill:none;stroke-miterlimit:10;}.a{stroke:#99ca3c;stroke-width:2px;}.b{fill:#fbdd45;}.c{stroke:#f8bd46;stroke-linecap:round;stroke-width:3px;}</style></defs><ellipse class="a" cx="73.76" cy="73.76" rx="83.59" ry="4.47" transform="translate(-30.55 73.76) rotate(-45)"/><ellipse class="a" cx="73.76" cy="73.76" rx="4.47" ry="83.59" transform="translate(-30.55 73.76) rotate(-45)"/><path class="b" d="M47,102.21c17.24,17.24,40.82,22.5,56.78,13.91a4.91,4.91,0,0,0,.79.28l1.36.31a9,9,0,0,0,8.4-2.4h0a9,9,0,0,0,2.4-8.4l-.31-1.36a4.91,4.91,0,0,0-.28-.79c8.59-16,3.33-39.54-13.91-56.78S61.43,24.49,45.47,33a4.93,4.93,0,0,1-3,.5l-7-1a2.57,2.57,0,0,0-2.93,2.92l1,7a4.93,4.93,0,0,1-.5,3C24.49,61.43,29.75,85,47,102.21Z"/><path class="c" d="M115.25,87.66c-1.54-11.6-7.51-23.81-17.57-33.86C84.07,40.19,66.51,34.05,51.87,36.28"/><path class="c" d="M60.54,42.68a41.31,41.31,0,0,0-16.86.58"/><path class="c" d="M93.05,60.05A64.12,64.12,0,0,0,72.63,46.18"/><path class="c" d="M110.58,93.62a55,55,0,0,0-6.27-18.57"/><path class="c" d="M66.27,51.73a52.93,52.93,0,0,0-14.16-3.89"/><path class="c" d="M92.73,72.83A68,68,0,0,0,80.25,60.05"/><path class="a" d="M33.23,28.87C44.6,39,60.13,53.81,76.92,70.61c17.55,17.54,32.9,33.71,43.08,45.18"/><path class="a" d="M108,44.91c-8.82,9.43-19.46,20.42-31,32C64.44,89.41,52.65,100.79,42.75,110"/></svg>