<svg xmlns="http://www.w3.org/2000/svg" width="912.221" height="665.29" viewBox="0 0 912.221 665.29"><defs><style>.a{fill:#51c5df;}</style></defs><path class="a" d="M874.231,661.787H37.988c-20.782,0-36.844-19.154-34.214-40.8l71.2-585.853C77.169,17.052,91.824,3.5,109.185,3.5H803.034c17.361,0,32.016,13.549,34.213,31.632l71.2,585.853C911.075,642.633,895.013,661.787,874.231,661.787Z"/><path class="a" d="M22.772,483c-.379.59-.76,1.19-1.12,1.79-.19.29-.37.59-.54.88-.25.41-.489.83-.719,1.24-.15.24-.281.47-.411.71l-8.339,68.64L6.032,602.41l-1.179,9.73H8.382L10.2,597.18v-.01l5.88-48.42,8.279-68.09Q23.552,481.815,22.772,483Zm0,0c-.379.59-.76,1.19-1.12,1.79-.19.29-.37.59-.54.88-.25.41-.489.83-.719,1.24-.15.24-.281.47-.411.71l-8.339,68.64L6.032,602.41l-1.179,9.73H8.382L10.2,597.18v-.01l5.88-48.42,8.279-68.09Q23.552,481.815,22.772,483ZM912,621.35c-.02-.26-.049-.52-.08-.78l-.87-7.18-.15-1.25-.489-4v-.01l-5.29-43.48v-.01l-8.23-67.75-1.721-14.11v-.01L840.722,34.71C838.322,14.93,822.112,0,803.032,0H109.182C90.1,0,73.9,14.93,71.5,34.71L17.052,482.77v.01l-1.719,14.11L7.1,564.64v.01l-5.29,43.47v.01l-.491,4.01-.15,1.25L.3,620.57c-.03.26-.059.52-.08.78a40.721,40.721,0,0,0,9.9,31.21,36.854,36.854,0,0,0,26.17,12.69c.56.03,1.129.04,1.7.04H874.232c.57,0,1.13-.01,1.7-.04A36.9,36.9,0,0,0,902.1,652.56,40.724,40.724,0,0,0,912,621.35Zm-36.07,36.89c-.559.03-1.13.05-1.7.05H37.993c-.571,0-1.14-.02-1.7-.05a29.98,29.98,0,0,1-20.931-10.32,33.668,33.668,0,0,1-8.239-25.14c.029-.46.069-.91.129-1.37l.61-5.05.52-4.22L10.2,597.18v-.01l5.88-48.42,8.279-68.09.741-6.1v-.01L78.453,35.56C80.422,19.28,93.643,7,109.182,7h693.85c15.551,0,28.761,12.28,30.74,28.56l53.351,438.99v.01l.739,6.1,8.281,68.1,5.889,48.43v.01l1.81,14.94.52,4.21v.01l.61,5.05c.06.46.1.91.131,1.37a33.728,33.728,0,0,1-8.241,25.14A29.974,29.974,0,0,1,875.932,658.24ZM22.772,483c-.379.59-.76,1.19-1.12,1.79-.19.29-.37.59-.54.88-.25.41-.489.83-.719,1.24-.15.24-.281.47-.411.71l-8.339,68.64L6.032,602.41l-1.179,9.73H8.382L10.2,597.18v-.01l5.88-48.42,8.279-68.09Q23.552,481.815,22.772,483Zm0,0c-.379.59-.76,1.19-1.12,1.79-.19.29-.37.59-.54.88-.25.41-.489.83-.719,1.24-.15.24-.281.47-.411.71l-8.339,68.64L6.032,602.41l-1.179,9.73H8.382L10.2,597.18v-.01l5.88-48.42,8.279-68.09Q23.552,481.815,22.772,483Z"/></svg>