<svg xmlns="http://www.w3.org/2000/svg" width="1351.22" height="697.08" viewBox="0 0 1351.22 697.08"><defs><style>.a{fill:#e1e0d3;}.a,.b,.c,.d{stroke:#032f45;stroke-miterlimit:10;}.b{fill:#f6882d;}.c{fill:none;}.d{fill:#032f45;}</style></defs><path class="a" d="M1149.881,11.905h201.34V.005h-244.1a26,26,0,0,0-25.81,29.09l62.68,522.61v.01l3.58,29.8,5.58,46.52.82,6.86.53,4.45v.01l4.18,34.82a26,26,0,0,0,25.82,22.91h166.72v-11.9h-130.14a40.281,40.281,0,0,1-14.47-2.69,43.486,43.486,0,0,1-27.18-35.54l-.98-8.07-.84-6.89-.48-3.96-1.13-9.27-3.45-28.41-2.75-22.67c-.01-.01-.01-.01,0-.02l-4.09-33.61L1108.231,61.1a44.762,44.762,0,0,1,10.79-35.12A41.318,41.318,0,0,1,1149.881,11.905Z"/><path class="a" d="M244.091.005H0v11.9h201.33a41.323,41.323,0,0,1,30.87,14.07,44.8,44.8,0,0,1,10.79,35.12l-57.48,472.96-4.09,33.63-2.75,22.69-3.45,28.39-1.13,9.27-.48,3.96-.84,6.89-.98,8.07a43.486,43.486,0,0,1-27.18,35.54,40.3,40.3,0,0,1-14.48,2.69H0v11.9h166.72a26.012,26.012,0,0,0,25.82-22.91l4.18-34.83.53-4.45.82-6.86,5.58-46.52,3.58-29.8v-.01L269.911,29.1A26,26,0,0,0,244.091.005Z"/><path class="b" d="M242.991,61.1l-57.48,472.96-4.09,33.63-2.75,22.69-3.45,28.39-1.13,9.27-.48,3.96-.84,6.89-.98,8.07a43.486,43.486,0,0,1-27.18,35.54,40.3,40.3,0,0,1-14.48,2.69H0v-15h130.13a25.693,25.693,0,0,0,14.48-4.51,28.915,28.915,0,0,0,12.29-20.53l.74-6.06,1.34-11.05,3.01-24.79.27-2.22,4.11-33.82,4.85-39.9,1.93-15.89L228.1,59.285a29.8,29.8,0,0,0-7.13-23.37,26.015,26.015,0,0,0-19.64-9.01H0v-15h201.33a41.323,41.323,0,0,1,30.87,14.07A44.8,44.8,0,0,1,242.991,61.1Z"/><path class="b" d="M1351.221,11.905v15h-201.34a26,26,0,0,0-19.63,9.01,29.8,29.8,0,0,0-7.13,23.37l54.95,452.12v.01l1.93,15.86v.01l4.85,39.91v.01l9.47,77.94a28.935,28.935,0,0,0,12.29,20.54,25.653,25.653,0,0,0,14.47,4.5h130.14v15h-130.14a40.281,40.281,0,0,1-14.47-2.69,43.486,43.486,0,0,1-27.18-35.54l-.98-8.07-.84-6.89-.48-3.96-1.13-9.27-3.45-28.41-2.75-22.67c-.01-.01-.01-.01,0-.02l-4.09-33.61L1108.231,61.1a44.762,44.762,0,0,1,10.79-35.12,41.318,41.318,0,0,1,30.86-14.07Z"/><path class="c" d="M1149.881,11.905h201.34V.005h-244.1a26,26,0,0,0-25.81,29.09l62.68,522.61v.01l3.58,29.8,5.58,46.52.82,6.86.53,4.45v.01l4.18,34.82a26,26,0,0,0,25.82,22.91h166.72v-11.9h-130.14a40.281,40.281,0,0,1-14.47-2.69,43.486,43.486,0,0,1-27.18-35.54l-9.63-79.27c-.01-.01-.01-.01,0-.02l-4.09-33.61L1108.231,61.1a44.762,44.762,0,0,1,10.79-35.12A41.318,41.318,0,0,1,1149.881,11.905ZM244.091.005H0v11.9h201.33a41.323,41.323,0,0,1,30.87,14.07,44.8,44.8,0,0,1,10.79,35.12l-57.48,472.96-4.09,33.63-2.75,22.69-3.45,28.39-1.13,9.27-.48,3.96-.84,6.89-.98,8.07a43.486,43.486,0,0,1-27.18,35.54,40.3,40.3,0,0,1-14.48,2.69H0v11.9h166.72a26.012,26.012,0,0,0,25.82-22.91l4.18-34.83.53-4.45.82-6.86,5.58-46.52,3.58-29.8v-.01L269.911,29.1A26,26,0,0,0,244.091.005Z"/><path class="d" d="M1184.5,697.085H166.721a26.012,26.012,0,0,0,25.82-22.91l4.18-34.83.53-4.45.82-6.86,5.58-46.52,3.58-29.8v-.01L269.911,29.1A26,26,0,0,0,244.091.005h863.03a26,26,0,0,0-25.81,29.09l62.68,522.61v.01l3.58,29.8,5.58,46.52.82,6.86.53,4.45v.01l4.18,34.82A26,26,0,0,0,1184.5,697.085Z"/></svg>