<svg xmlns="http://www.w3.org/2000/svg" width="1132.549" height="306.196" viewBox="0 0 1132.549 306.196"><defs><style>.a{fill:#048444;}.a,.b{stroke:#032f45;stroke-miterlimit:10;}.b{fill:#ad6528;}</style></defs><path class="a" d="M72.615,148.2l-8.34,3.7-6.01,2.67-1.98.88-7.98,3.54-1.9.84a7.7,7.7,0,0,0-.22-.98l-.3-1.14-.68-2.33c-.48-1.56-.97-3.14-1.51-4.71-.31-.91-.62-1.82-.95-2.73-.79-2.23-1.64-4.44-2.53-6.64a141.579,141.579,0,0,0-8.76-18.04A99.125,99.125,0,0,0,26,114.85a70.355,70.355,0,0,0-6.4-7.71A44.945,44.945,0,0,0,2.885,95.69l.18-.98a49.238,49.238,0,0,1,21.21,6.05,95.617,95.617,0,0,1,18.51,12.93c3.44,2.99,6.72,6.16,9.87,9.46.3.31.6.63.91.95q2.61,2.775,5.1,5.67c.22.25.43.5.65.76q3.345,3.93,6.5,8.05c.02.03.05.06.07.09,1.13,1.47,2.24,2.98,3.34,4.51l1.67,2.38.83,1.24c.24.38.45.69.73,1.14C72.505,148.02,72.555,148.11,72.615,148.2Z"/><path class="a" d="M86.865,153.93l-.15.03-10.5,2.18-12.78,2.65-4.64.96c-.07-1.04-.22-2.33-.34-3.52l-.19-1.66-.23-2c-.18-1.54-.38-3.08-.59-4.63-.03-.33-.08-.67-.13-1-.07-.58-.15-1.16-.23-1.74q-1.035-7.365-2.33-14.72c-.38-2.13-.77-4.26-1.19-6.38-.21-1.06-.42-2.11-.64-3.17-1.34-6.57-2.87-13.09-4.66-19.53a152.236,152.236,0,0,0-10.27-27.7,61.212,61.212,0,0,0-7.95-12.2c-3.17-3.64-7.06-6.79-11.88-8.16l.15-.99c5.29.25,10.4,2.69,14.72,5.84A66.731,66.731,0,0,1,44.575,69.3a141.969,141.969,0,0,1,12.46,17.81q2.58,4.29,4.96,8.68c.42.78.84,1.56,1.25,2.34q3.2,6.015,6.09,12.15,3.27,6.915,6.25,13.95.93,2.175,1.82,4.37c.59,1.41,1.16,2.82,1.72,4.24.8,1.99,1.58,4,2.35,6.01q1.41,3.675,2.76,7.41l.59,1.68.73,2.08C86,151.3,86.415,152.49,86.865,153.93Z"/><path class="a" d="M77.745,151.25c0-.01.01-.02.01-.03-.01.11-.03.22-.04.33-.04.31-.09.55-.13.83-.02.13-.05.19-.07.29-.03.07-.04.23-.07.23a.265.265,0,0,0-.06.05.57.57,0,0,1-.01-.13,1.355,1.355,0,0,1,.02-.2,2.657,2.657,0,0,1,.06-.36c.05-.23.11-.45.18-.68Z"/><path class="a" d="M105.585,153.62l-.01,1.02c-.01.36,0,.63-.03,1.08l-.03.42-.07.84c-.01.18-.06.5-.1.77l-.14.85a17.523,17.523,0,0,1-.57,2.31l-.22.64c-.11.3-.31.78-.49,1.16a19.836,19.836,0,0,1-1.28,2.3l-11.78-8.17-2.95-2.04-1.2-.84-7.63-5.29a11.281,11.281,0,0,0-.99,1.72c-.12.27-.27.63-.34.83.11-.97.18-2.11.23-3.28,0-.22.01-.45.02-.67.09-2.74.04-5.65-.05-8.6-.01-.38-.03-.76-.04-1.14-.12-2.95-.29-5.94-.51-8.93-.27-3.77-.62-7.56-1.02-11.34-1.06-9.9-2.48-19.82-4.3-29.67q-1-5.535-2.2-11.03-1.23-5.64-2.65-11.23c-1.56-6.11-3.31-12.16-5.35-18.12-1.16-3.41-2.41-6.8-3.77-10.14A111.4,111.4,0,0,0,48.8,18.8c-3.73-5.7-8.22-11.05-14.11-14.74l.45-.89c6.64,2.76,12.31,7.59,17.17,12.89a113.6,113.6,0,0,1,11.51,15.26c.46.71.91,1.43,1.35,2.14q2.565,4.185,4.91,8.5c2.16,3.94,4.18,7.94,6.1,12,2.84,5.99,5.44,12.1,7.89,18.25q3.645,9.18,6.8,18.54,1.8,5.3,3.45,10.67,1.815,5.835,3.44,11.73c1.78,6.47,3.43,12.99,4.84,19.69l.33,1.56c.29,1.43.58,2.86.85,4.31.41,2.24.79,4.51,1.12,6.88.1.77.2,1.55.29,2.35.14,1.22.26,2.49.33,3.88C105.555,152.38,105.565,153.02,105.585,153.62Z"/><path class="a" d="M109.112,148.2c.352-.608.6-.959.886-1.4l.833-1.237,1.668-2.385c1.124-1.56,2.251-3.1,3.41-4.6q3.46-4.525,7.154-8.8a159.394,159.394,0,0,1,15.872-16.084,95.986,95.986,0,0,1,18.512-12.93,49.31,49.31,0,0,1,21.213-6.05l.182.984a44.864,44.864,0,0,0-16.712,11.45,70.027,70.027,0,0,0-6.4,7.71,97.182,97.182,0,0,0-5.457,8.405A141.345,141.345,0,0,0,141.51,141.3c-1.257,3.1-2.42,6.23-3.482,9.373-.537,1.568-1.032,3.145-1.51,4.708l-.676,2.33-.306,1.138a8.248,8.248,0,0,0-.219.985Z"/><path class="a" d="M94.858,153.934c.451-1.443.867-2.629,1.308-3.916l1.327-3.755q1.344-3.735,2.753-7.417,2.816-7.374,5.889-14.619c4.111-9.66,8.566-19.181,13.589-28.441A163.461,163.461,0,0,1,137.146,69.3a67.118,67.118,0,0,1,11.547-11.112c4.313-3.15,9.429-5.587,14.713-5.836l.153.988c-4.823,1.374-8.711,4.523-11.876,8.156a61.217,61.217,0,0,0-7.956,12.2,152.71,152.71,0,0,0-10.271,27.7c-2.652,9.553-4.744,19.29-6.487,29.082q-1.3,7.346-2.328,14.725-.513,3.684-.955,7.362l-.417,3.661c-.125,1.188-.265,2.48-.338,3.522Z"/><path class="a" d="M79.083,165.014a18.851,18.851,0,0,1-1.287-2.306c-.176-.375-.382-.858-.491-1.156l-.212-.645a17.252,17.252,0,0,1-.58-2.308l-.135-.843c-.04-.27-.09-.6-.1-.774l-.1-1.256c-.035-.45-.023-.72-.034-1.088l-.007-1.018c.018-.6.029-1.235.062-1.8.125-2.284.362-4.272.629-6.23.532-3.9,1.224-7.555,1.963-11.192,1.494-7.241,3.254-14.272,5.178-21.246a404.824,404.824,0,0,1,13.68-40.941,253.079,253.079,0,0,1,18.9-38.748,117.938,117.938,0,0,1,12.859-17.4c4.864-5.305,10.536-10.132,17.17-12.9l.45.893c-5.887,3.693-10.373,9.039-14.1,14.741A111.975,111.975,0,0,0,123.6,37.069a242.119,242.119,0,0,0-11.766,39.489,386.533,386.533,0,0,0-6.5,40.7c-.718,6.8-1.265,13.606-1.524,20.278-.121,3.321-.189,6.644-.09,9.739.044,1.54.129,3.057.287,4.279.036.312.089.551.127.828.022.126.052.195.074.294.026.069.044.238.07.222a.423.423,0,0,1,.057.05c.009.042.01-.072.01-.126a1.88,1.88,0,0,0-.013-.2c-.011-.081,0-.061-.063-.361a6.382,6.382,0,0,0-.179-.678l-.116-.331c-.069-.2-.218-.583-.347-.86a10.642,10.642,0,0,0-.987-1.721Z"/><rect class="b" x="35.275" y="147.94" width="111.18" height="155.09"/><path class="a" d="M997.23,159.833a8.054,8.054,0,0,0-.219-.985l-.3-1.138-.677-2.33c-.478-1.563-.973-3.14-1.51-4.708-1.062-3.143-2.225-6.276-3.482-9.373a141.473,141.473,0,0,0-8.761-18.042,97.192,97.192,0,0,0-5.458-8.405,70.027,70.027,0,0,0-6.4-7.71,44.864,44.864,0,0,0-16.712-11.45l.182-.984a49.306,49.306,0,0,1,21.213,6.05,95.986,95.986,0,0,1,18.512,12.93,159.289,159.289,0,0,1,15.872,16.084q3.7,4.284,7.155,8.8c1.159,1.5,2.286,3.042,3.409,4.6l1.668,2.385.833,1.237c.289.445.534.8.886,1.4Z"/><path class="a" d="M1009.616,159.75c-.073-1.042-.213-2.334-.338-3.522l-.417-3.661q-.438-3.674-.955-7.362-1.029-7.371-2.328-14.725c-1.743-9.792-3.835-19.529-6.487-29.082A152.71,152.71,0,0,0,988.82,73.7a61.217,61.217,0,0,0-7.956-12.2c-3.165-3.633-7.053-6.782-11.876-8.156l.153-.988c5.284.249,10.4,2.686,14.713,5.836A67.118,67.118,0,0,1,995.4,69.3a163.461,163.461,0,0,1,17.422,26.485c5.023,9.26,9.478,18.781,13.589,28.441q3.075,7.249,5.889,14.619,1.407,3.687,2.752,7.417l1.328,3.755c.441,1.287.857,2.473,1.308,3.916Z"/><path class="a" d="M1029.907,148.672a10.6,10.6,0,0,0-.988,1.72c-.128.277-.277.665-.347.861l-.116.331a6.881,6.881,0,0,0-.179.677c-.059.3-.051.281-.063.362-.007.065-.011.131-.012.2s0,.169.009.127a.332.332,0,0,1,.058-.05c.026.016.044-.154.069-.222.023-.1.052-.169.074-.3.039-.277.091-.516.128-.828.157-1.222.242-2.739.287-4.279.1-3.095.031-6.418-.091-9.739-.258-6.672-.806-13.48-1.523-20.278a387.035,387.035,0,0,0-6.5-40.7,242.122,242.122,0,0,0-11.767-39.489A111.894,111.894,0,0,0,999.614,18.8c-3.728-5.7-8.214-11.048-14.1-14.742l.45-.892c6.634,2.763,12.306,7.59,17.171,12.894a118.089,118.089,0,0,1,12.859,17.4,253.074,253.074,0,0,1,18.9,38.748,405.145,405.145,0,0,1,13.681,40.94c1.923,6.974,3.683,14,5.177,21.247.739,3.636,1.431,7.287,1.963,11.191.267,1.958.5,3.946.629,6.23.034.565.044,1.2.063,1.8l-.007,1.017c-.012.369,0,.638-.035,1.089l-.1,1.255c-.01.177-.06.505-.1.775l-.136.843a17.135,17.135,0,0,1-.58,2.308l-.211.645c-.109.3-.316.78-.492,1.155a18.7,18.7,0,0,1-1.286,2.306Z"/><path class="a" d="M1129.665,95.69a44.864,44.864,0,0,0-16.71,11.45,70.355,70.355,0,0,0-6.4,7.71,96.73,96.73,0,0,0-5.46,8.41,140.252,140.252,0,0,0-8.76,18.04c-.89,2.2-1.74,4.41-2.53,6.64-.33.91-.64,1.82-.95,2.73-.54,1.57-1.04,3.15-1.51,4.71l-.68,2.33-.3,1.14a6.273,6.273,0,0,0-.22.98l-1.9-.84-7.99-3.55-1.97-.87-6.01-2.67-8.34-3.7c.05-.09.11-.18.16-.26.27-.45.49-.76.73-1.14l.83-1.24,1.67-2.38c1.1-1.53,2.21-3.04,3.34-4.51.02-.03.05-.06.07-.09q3.15-4.125,6.5-8.04c.21-.26.43-.52.65-.77q2.49-2.88,5.1-5.66c.3-.33.6-.65.91-.96,3.14-3.3,6.43-6.47,9.86-9.46a95.686,95.686,0,0,1,18.52-12.93,49.238,49.238,0,0,1,21.21-6.05Z"/><path class="a" d="M1114.385,53.34c-4.83,1.37-8.71,4.52-11.88,8.16a61.212,61.212,0,0,0-7.95,12.2,152.236,152.236,0,0,0-10.27,27.7c-1.79,6.43-3.32,12.95-4.66,19.51v.01c-.12.56-.24,1.13-.35,1.69-.1.5-.2,1-.29,1.5-.42,2.12-.81,4.24-1.19,6.37q-1.305,7.35-2.33,14.72c-.08.59-.16,1.19-.24,1.78q-.075.48-.12.96c-.21,1.55-.41,3.09-.6,4.63l-.22,2-.19,1.66c-.13,1.19-.27,2.48-.34,3.52l-4.64-.96-12.78-2.65-10.5-2.18-.15-.03c.45-1.44.86-2.63,1.31-3.91l.73-2.08.59-1.68q1.35-3.735,2.75-7.41c.77-2.02,1.55-4.02,2.36-6.02.56-1.43,1.14-2.85,1.72-4.26.59-1.45,1.2-2.9,1.81-4.34,2-4.69,4.08-9.36,6.26-13.97q2.91-6.12,6.08-12.13c.41-.78.83-1.56,1.25-2.34q2.385-4.38,4.97-8.68V87.1a142.916,142.916,0,0,1,12.46-17.8,66.731,66.731,0,0,1,11.54-11.11c4.31-3.15,9.43-5.59,14.71-5.84Z"/><path class="a" d="M1055.155,152.62a1.408,1.408,0,0,1,.01.2.528.528,0,0,1-.01.13c-.01-.02-.03-.03-.05-.05-.03,0-.05-.16-.07-.22-.03-.1-.05-.17-.08-.3-.04-.28-.09-.51-.12-.83-.01-.09-.02-.19-.04-.29l.12.32c.07.23.13.45.18.68A2.657,2.657,0,0,1,1055.155,152.62Z"/><path class="a" d="M1097.855,4.06c-5.88,3.69-10.37,9.04-14.1,14.74a112.232,112.232,0,0,0-9.33,18.27c-1.35,3.33-2.6,6.71-3.76,10.11v.01c-.51,1.47-.99,2.94-1.46,4.42-1.43,4.53-2.72,9.12-3.9,13.73v.01c-.95,3.72-1.82,7.46-2.64,11.21q-1.185,5.49-2.2,11.01c-.01.01-.01.01,0,.02-1.83,9.85-3.25,19.77-4.31,29.67-.39,3.77-.74,7.55-1.01,11.31q-.33,4.515-.51,8.97c-.01.37-.03.75-.04,1.12-.09,2.94-.14,5.87-.05,8.61.01.22.01.45.02.67.04,1.18.12,2.33.23,3.31-.07-.19-.22-.58-.34-.86a11.281,11.281,0,0,0-.99-1.72l-7.63,5.29-1.2.84-2.95,2.04-11.78,8.17a17.768,17.768,0,0,1-1.28-2.3c-.18-.38-.39-.86-.5-1.16l-.21-.64a17.867,17.867,0,0,1-.58-2.31l-.13-.84c-.04-.27-.09-.6-.1-.78l-.07-.84-.03-.41c-.03-.45-.02-.72-.03-1.09l-.01-1.02c.02-.6.03-1.24.06-1.8.08-1.38.19-2.65.34-3.88.08-.8.18-1.58.29-2.35.32-2.38.71-4.67,1.12-6.92.27-1.44.55-2.86.84-4.27.11-.52.22-1.05.33-1.57,1.43-6.69,3.07-13.21,4.85-19.68q1.635-5.9,3.44-11.73,1.65-5.37,3.45-10.68,3.165-9.36,6.79-18.53c2.45-6.15,5.06-12.26,7.9-18.25q2.88-6.09,6.09-11.99,2.355-4.32,4.91-8.51c.45-.71.9-1.43,1.36-2.14,0,0-.01,0,0-.01a113.432,113.432,0,0,1,11.5-15.25c4.87-5.3,10.54-10.13,17.17-12.89Z"/><rect class="b" x="986.095" y="147.94" width="111.18" height="155.09"/></svg>